<?xml version="1.0" encoding="UTF-8" standalone="no"?>
<!-- Created with Inkscape (http://www.inkscape.org/) -->

<svg
   width="12.674416mm"
   height="11.221085mm"
   viewBox="0 0 12.674416 11.221085"
   version="1.1"
   id="svg5"
   xml:space="preserve"
   inkscape:export-filename="logo.svg"
   inkscape:export-xdpi="96"
   inkscape:export-ydpi="96"
   xmlns:inkscape="http://www.inkscape.org/namespaces/inkscape"
   xmlns:sodipodi="http://sodipodi.sourceforge.net/DTD/sodipodi-0.dtd"
   xmlns="http://www.w3.org/2000/svg"
   xmlns:svg="http://www.w3.org/2000/svg"><sodipodi:namedview
     id="namedview7"
     pagecolor="#ffffff"
     bordercolor="#000000"
     borderopacity="0.25"
     inkscape:showpageshadow="2"
     inkscape:pageopacity="0.0"
     inkscape:pagecheckerboard="0"
     inkscape:deskcolor="#d1d1d1"
     inkscape:document-units="mm"
     showgrid="false"
     showguides="true" /><defs
     id="defs2" /><g
     inkscape:label="Layer 1"
     inkscape:groupmode="layer"
     id="layer1"
     transform="translate(-95.882319,-158.05395)"><g
       id="g7670"><g
         id="g7664"
         transform="matrix(0.65345907,0,0,0.65345907,35.833667,58.902604)"><path
           class="st1"
           d="m 104.15277,156.44283 c 0.87687,-1.50169 0.35685,-3.42126 -1.16341,-4.28884 -1.52027,-0.86626 -3.463715,-0.35287 -4.341914,1.14882 -0.03847,0.0676 -0.07562,0.13531 -0.10878,0.20562 l -2.966242,5.07551 c -0.065,0.10082 -0.126025,0.20429 -0.181742,0.31175 l -3.080328,5.31429 5.503997,3.08564 3.064409,-5.27052 c 0.0663,-0.0995 0.12735,-0.2043 0.18174,-0.31175 l 2.96624,-5.07551 c 0.0438,-0.0624 0.0862,-0.12735 0.12603,-0.19501"
           id="path6098"
           style="stroke-width:0.0132658" /><path
           class="st2"
           d="m 97.839556,167.2797 c -0.872892,1.52557 -2.840216,2.08804 -4.351195,1.20719 -1.512306,-0.88085 -2.048246,-2.79113 -1.175353,-4.31671 0.872892,-1.52557 2.82297,-2.08936 4.335276,-1.20851 1.512306,0.87952 2.064165,2.79246 1.191272,4.31803"
           id="path6100"
           style="stroke-width:0.0132658" /><path
           class="st3"
           d="m 109.71779,157.44706 c -1.50302,-0.86626 -3.42259,-0.35287 -4.29283,1.14617 l -3.14267,5.43103 c -0.86626,1.49639 -0.3542,3.41197 1.14219,4.27823 0.003,0.001 0.005,0.003 0.008,0.004 1.50301,0.86626 3.42258,0.35288 4.29415,-1.14749 l 3.14135,-5.42971 c 0.86626,-1.49771 0.3542,-3.41197 -1.14352,-4.27823 -10e-4,-0.001 -0.004,-0.003 -0.007,-0.004"
           id="path6102"
           style="stroke-width:0.0132658" /></g></g></g><style
     type="text/css"
     id="style6092">
	.st0{fill-rule:evenodd;clip-rule:evenodd;fill:#5F6368;}
	.st1{fill-rule:evenodd;clip-rule:evenodd;fill:#FBBC04;}
	.st2{fill-rule:evenodd;clip-rule:evenodd;fill:#34A853;}
	.st3{fill-rule:evenodd;clip-rule:evenodd;fill:#4285F4;}
</style></svg>
