<svg xmlns:inkscape="http://www.inkscape.org/namespaces/inkscape" xmlns:sodipodi="http://sodipodi.sourceforge.net/DTD/sodipodi-0.dtd" xmlns="http://www.w3.org/2000/svg" xmlns:svg="http://www.w3.org/2000/svg" width="44.667194mm" height="16.158997mm" viewBox="0 0 44.667194 16.158997" id="svg5" xml:space="preserve" inkscape:export-filename="logo.svg" inkscape:export-xdpi="96" inkscape:export-ydpi="96"><defs id="defs2"></defs><g inkscape:label="Layer 1" inkscape:groupmode="layer" id="layer1" transform="translate(-55.316541,-90.697324)"><g id="g4280"><g id="g4240"><g id="g4201"><g id="g4163"><g id="g4126"><g id="g4090"><g id="g4055"><g id="g4021"><g id="g3858"><g id="g3826"><g id="g3795"><g id="g3765" transform="matrix(2.7567627,0,0,2.7567627,-51.639414,-120.83773)"><g id="g3736"><g id="g3708"><g id="g3681"><g id="g546" style="font-size:3.175px;fill:#6e61ff;fill-opacity:1;stroke-width:0.264583"><path d="m 38.827016,79.000088 h 1.4351 v -0.381 h -1.016 v -1.8415 h -0.4191 z" style="font-weight:bold;font-family:'Space Grotesk';-inkscape-font-specification:'Space Grotesk Bold';fill:#6e61ff;fill-opacity:1" id="path508"></path><path d="m 41.278115,79.044538 c 0.4318,0 0.619125,-0.244475 0.708025,-0.41275 l -0.327025,-0.17145 c -0.05398,0.12065 -0.14605,0.23495 -0.3683,0.23495 -0.22225,0 -0.390525,-0.149225 -0.40005,-0.365125 h 1.146175 v -0.136525 c 0,-0.4826 -0.301625,-0.8128 -0.765175,-0.8128 -0.4699,0 -0.7874,0.3175 -0.7874,0.8128 v 0.0381 c 0,0.4953 0.320675,0.8128 0.79375,0.8128 z M 40.89394,78.031713 c 0.02857,-0.180975 0.15875,-0.301625 0.37465,-0.301625 0.206375,0 0.3429,0.12065 0.36195,0.301625 z" style="font-weight:bold;font-family:'Space Grotesk';-inkscape-font-specification:'Space Grotesk Bold';fill:#6e61ff;fill-opacity:1" id="path510"></path><path d="m 42.944987,79.000088 h 0.4445 v -0.3302 h -0.3048 c -0.05715,0 -0.0889,-0.03175 -0.0889,-0.09525 v -0.81915 h 0.4318 v -0.3302 h -0.4318 v -0.48895 h -0.40005 v 0.48895 h -0.3937 v 0.3302 h 0.3937 v 0.889 c 0,0.2159 0.1397,0.3556 0.34925,0.3556 z" style="font-weight:bold;font-family:'Space Grotesk';-inkscape-font-specification:'Space Grotesk Bold';fill:#6e61ff;fill-opacity:1" id="path512"></path><path d="m 43.849855,77.752313 h 0.155575 c 0.23495,0 0.3556,-0.12065 0.3556,-0.3556 v -0.365125 c 0,-0.180975 -0.123825,-0.29845 -0.295275,-0.29845 -0.17145,0 -0.295275,0.117475 -0.295275,0.28575 0,0.155575 0.123825,0.269875 0.295275,0.269875 h 0.05397 v 0.1016 c 0,0.1016 -0.04445,0.14605 -0.14605,0.14605 H 43.84985 Z" style="font-weight:bold;font-family:'Space Grotesk';-inkscape-font-specification:'Space Grotesk Bold';fill:#6e61ff;fill-opacity:1" id="path514"></path><path d="m 45.377025,79.044538 c 0.40005,0 0.6604,-0.187325 0.6604,-0.517525 0,-0.3302 -0.2794,-0.4318 -0.635,-0.4953 l -0.0889,-0.01587 c -0.14605,-0.0254 -0.23495,-0.06668 -0.23495,-0.168275 0,-0.09207 0.08255,-0.149225 0.23495,-0.149225 0.1524,0 0.26035,0.06032 0.295275,0.22225 l 0.371475,-0.1143 c -0.07303,-0.254 -0.314325,-0.42545 -0.66675,-0.42545 -0.37465,0 -0.6223,0.174625 -0.6223,0.485775 0,0.31115 0.27305,0.434975 0.60325,0.4953 l 0.0889,0.01587 c 0.187325,0.03493 0.2667,0.07937 0.2667,0.1778 0,0.09843 -0.0889,0.17145 -0.27305,0.17145 -0.18415,0 -0.333375,-0.06985 -0.37465,-0.2921 l -0.3683,0.09525 c 0.05397,0.3302 0.3302,0.51435 0.74295,0.51435 z" style="font-weight:bold;font-family:'Space Grotesk';-inkscape-font-specification:'Space Grotesk Bold';fill:#6e61ff;fill-opacity:1" id="path516"></path><path d="m 47.180418,79.000088 h 0.4064 v -1.914525 h 0.05715 l 0.381,1.914525 h 0.69215 l 0.381,-1.914525 h 0.05715 v 1.914525 h 0.4064 v -2.2225 h -0.777875 l -0.384175,1.93675 h -0.05715 l -0.384175,-1.93675 h -0.777875 z" style="font-weight:bold;font-family:'Space Grotesk';-inkscape-font-specification:'Space Grotesk Bold';fill:#6e61ff;fill-opacity:1" id="path518"></path><path d="m 50.482418,79.044538 c 0.3302,0 0.428625,-0.1778 0.4572,-0.257175 h 0.06032 v 0.0032 c 0,0.127 0.1143,0.20955 0.269875,0.20955 h 0.2667 v -0.3302 h -0.127 c -0.05715,0 -0.0889,-0.03175 -0.0889,-0.09525 v -0.587375 c 0,-0.3937 -0.26035,-0.606425 -0.6731,-0.606425 -0.409575,0 -0.61595,0.206375 -0.69215,0.4445 l 0.3683,0.123825 c 0.02858,-0.142875 0.117475,-0.244475 0.3175,-0.244475 0.2032,0 0.2921,0.10795 0.2921,0.254 v 0.0889 h -0.4318 c -0.3556,0 -0.6096,0.168275 -0.6096,0.492125 0,0.32385 0.254,0.504825 0.59055,0.504825 z m 0.06985,-0.32385 c -0.17145,0 -0.26035,-0.07937 -0.26035,-0.193675 0,-0.1143 0.0889,-0.180975 0.238125,-0.180975 h 0.403225 v 0.03175 c 0,0.20955 -0.15875,0.3429 -0.381,0.3429 z" style="font-weight:bold;font-family:'Space Grotesk';-inkscape-font-specification:'Space Grotesk Bold';fill:#6e61ff;fill-opacity:1" id="path520"></path><path d="m 51.828615,79.000088 h 0.40005 v -0.625475 h 0.05715 l 0.55245,0.625475 h 0.51435 l -0.752475,-0.8128 0.727075,-0.762 h -0.5207 l -0.5207,0.581025 h -0.05715 v -1.228725 h -0.40005 z" style="font-weight:bold;font-family:'Space Grotesk';-inkscape-font-specification:'Space Grotesk Bold';fill:#6e61ff;fill-opacity:1" id="path522"></path><path d="m 54.24161,79.044538 c 0.4318,0 0.619125,-0.244475 0.708025,-0.41275 l -0.327025,-0.17145 c -0.05398,0.12065 -0.14605,0.23495 -0.3683,0.23495 -0.22225,0 -0.390525,-0.149225 -0.40005,-0.365125 h 1.146175 v -0.136525 c 0,-0.4826 -0.301625,-0.8128 -0.765175,-0.8128 -0.4699,0 -0.7874,0.3175 -0.7874,0.8128 v 0.0381 c 0,0.4953 0.320675,0.8128 0.79375,0.8128 z m -0.384175,-1.012825 c 0.02857,-0.180975 0.15875,-0.301625 0.37465,-0.301625 0.206375,0 0.3429,0.12065 0.36195,0.301625 z" style="font-weight:bold;font-family:'Space Grotesk';-inkscape-font-specification:'Space Grotesk Bold';fill:#6e61ff;fill-opacity:1" id="path524"></path></g><g id="g553" style="font-size:3.175px;fill:#6e61ff;fill-opacity:1;stroke-width:0.264583" transform="translate(6.116115,-0.21142705)"><path d="m 38.827016,82.171148 h 0.4064 v -1.914525 h 0.05715 l 0.381,1.914525 h 0.69215 l 0.381,-1.914525 h 0.05715 v 1.914525 h 0.4064 v -2.2225 h -0.777875 l -0.384175,1.93675 h -0.05715 l -0.384175,-1.93675 h -0.777875 z" style="font-weight:bold;font-family:'Space Grotesk';-inkscape-font-specification:'Space Grotesk Bold';fill:#6e61ff;fill-opacity:1" id="path526"></path><path d="m 42.389366,82.215598 c 0.4699,0 0.8255,-0.29845 0.8255,-0.80645 v -0.0508 c 0,-0.508 -0.3556,-0.80645 -0.8255,-0.80645 -0.4699,0 -0.8255,0.29845 -0.8255,0.80645 v 0.0508 c 0,0.508 0.3556,0.80645 0.8255,0.80645 z m 0,-0.3556 c -0.244475,0 -0.42545,-0.1651 -0.42545,-0.460375 v -0.03175 c 0,-0.295275 0.1778,-0.460375 0.42545,-0.460375 0.24765,0 0.42545,0.1651 0.42545,0.460375 v 0.03175 c 0,0.295275 -0.180975,0.460375 -0.42545,0.460375 z" style="font-weight:bold;font-family:'Space Grotesk';-inkscape-font-specification:'Space Grotesk Bold';fill:#6e61ff;fill-opacity:1" id="path528"></path><path d="m 43.583164,82.171148 h 0.40005 v -0.8001 c 0,-0.2921 0.142875,-0.46355 0.38735,-0.46355 0.2159,0 0.33655,0.117475 0.33655,0.3556 v 0.90805 h 0.40005 v -0.9398 c 0,-0.390525 -0.244475,-0.6604 -0.612775,-0.6604 -0.282575,0 -0.409575,0.123825 -0.460375,0.231775 h -0.05715 v -0.206375 h -0.3937 z" style="font-weight:bold;font-family:'Space Grotesk';-inkscape-font-specification:'Space Grotesk Bold';fill:#6e61ff;fill-opacity:1" id="path530"></path><path d="m 46.256512,82.215598 c 0.4318,0 0.619125,-0.244475 0.708025,-0.41275 l -0.327025,-0.17145 c -0.05398,0.12065 -0.14605,0.23495 -0.3683,0.23495 -0.22225,0 -0.390525,-0.149225 -0.40005,-0.365125 h 1.146175 v -0.136525 c 0,-0.4826 -0.301625,-0.8128 -0.765175,-0.8128 -0.4699,0 -0.7874,0.3175 -0.7874,0.8128 v 0.0381 c 0,0.4953 0.320675,0.8128 0.79375,0.8128 z m -0.384175,-1.012825 c 0.02857,-0.180975 0.15875,-0.301625 0.37465,-0.301625 0.206375,0 0.3429,0.12065 0.36195,0.301625 z" style="font-weight:bold;font-family:'Space Grotesk';-inkscape-font-specification:'Space Grotesk Bold';fill:#6e61ff;fill-opacity:1" id="path532"></path><path d="m 47.542385,82.806148 h 0.9906 c 0.20955,0 0.34925,-0.1397 0.34925,-0.3556 v -1.8542 h -0.40005 v 0.8001 c 0,0.2921 -0.142875,0.46355 -0.38735,0.46355 -0.2159,0 -0.33655,-0.117475 -0.33655,-0.3556 v -0.90805 h -0.40005 v 0.9398 c 0,0.390525 0.244475,0.6604 0.612775,0.6604 0.282575,0 0.409575,-0.123825 0.460375,-0.231775 h 0.05715 v 0.396875 c 0,0.0635 -0.03175,0.09525 -0.0889,0.09525 h -0.85725 z" style="font-weight:bold;font-family:'Space Grotesk';-inkscape-font-specification:'Space Grotesk Bold';fill:#6e61ff;fill-opacity:1" id="path534"></path></g><rect style="fill:#6e61ff;fill-opacity:1;stroke-width:0.348296" id="rect459" width="5.0520582" height="2.7574933" x="38.797665" y="79.738693"></rect><g id="g581" style="font-size:3.175px;fill:#ff8080;stroke-width:0.264583" transform="matrix(1.1410862,0,0,1.1410862,4.2968319,-7.5952245)"><g aria-label="Some" id="text634" style="font-weight:bold;font-size:1.50956px;font-family:'Space Grotesk';-inkscape-font-specification:'Space Grotesk Bold';letter-spacing:0px;word-spacing:0px;fill:#ffffff;stroke-width:0.125797"><path d="m 30.909661,78.180603 c 0.244548,0 0.400033,-0.132841 0.400033,-0.326065 0,-0.193223 -0.149446,-0.27172 -0.374371,-0.320026 l -0.03472,-0.0075 c -0.126803,-0.02717 -0.185676,-0.06491 -0.185676,-0.143408 0,-0.0785 0.05585,-0.126803 0.176619,-0.126803 0.120765,0 0.194733,0.04831 0.194733,0.16907 v 0.04529 h 0.196243 v -0.04529 c 0,-0.229453 -0.164542,-0.344179 -0.390976,-0.344179 -0.226434,0 -0.372861,0.114726 -0.372861,0.30795 0,0.193224 0.128312,0.267192 0.347198,0.315498 l 0.03472,0.0075 c 0.135861,0.03019 0.212848,0.06038 0.212848,0.147937 0,0.08453 -0.06793,0.144917 -0.20379,0.144917 -0.135861,0 -0.218887,-0.0634 -0.218887,-0.190204 v -0.04227 h -0.196242 v 0.04227 c 0,0.229453 0.17058,0.365313 0.415129,0.365313 z" id="path740"></path><path d="m 31.819924,78.180603 c 0.223415,0 0.392485,-0.141898 0.392485,-0.383428 v -0.02415 c 0,-0.241529 -0.16907,-0.383428 -0.392485,-0.383428 -0.223415,0 -0.392486,0.141899 -0.392486,0.383428 v 0.02415 c 0,0.24153 0.169071,0.383428 0.392486,0.383428 z m 0,-0.16907 c -0.116236,0 -0.202281,-0.0785 -0.202281,-0.218886 v -0.0151 c 0,-0.140389 0.08453,-0.218886 0.202281,-0.218886 0.117745,0 0.202281,0.0785 0.202281,0.218886 v 0.0151 c 0,0.140389 -0.08604,0.218886 -0.202281,0.218886 z" id="path742"></path><path d="m 32.387518,78.15947 h 0.190204 v -0.442301 c 0,-0.102651 0.04831,-0.160014 0.135861,-0.160014 0.07548,0 0.120764,0.04227 0.120764,0.123784 v 0.478531 h 0.190205 v -0.442301 c 0,-0.102651 0.04831,-0.160014 0.13586,-0.160014 0.07548,0 0.120765,0.04227 0.120765,0.123784 v 0.478531 h 0.190205 v -0.492117 c 0,-0.181147 -0.111708,-0.268702 -0.250587,-0.268702 -0.114727,0 -0.17209,0.04831 -0.2053,0.111708 h -0.02717 c -0.03472,-0.06642 -0.0951,-0.111708 -0.202282,-0.111708 -0.09963,0 -0.158503,0.04378 -0.184166,0.09359 h -0.02717 v -0.08152 h -0.187185 z" id="path744"></path><path d="m 34.01784,78.180603 c 0.2053,0 0.294364,-0.116236 0.336632,-0.196242 l -0.155485,-0.08152 c -0.02566,0.05736 -0.06944,0.111708 -0.175109,0.111708 -0.105669,0 -0.185676,-0.07095 -0.190205,-0.1736 h 0.544951 v -0.06491 c 0,-0.229453 -0.143408,-0.386447 -0.363803,-0.386447 -0.223415,0 -0.374371,0.150956 -0.374371,0.386447 v 0.01811 c 0,0.235491 0.152465,0.386447 0.37739,0.386447 z m -0.182657,-0.481549 c 0.01359,-0.08604 0.07548,-0.143408 0.178128,-0.143408 0.09812,0 0.163032,0.05736 0.17209,0.143408 z" id="path746"></path></g><path id="rect801" style="fill:#ffffff;stroke-width:0.0700042" d="m 30.817749,77.025729 h 0.158954 v 1.204713 h -0.158954 z"></path></g></g></g></g></g></g></g></g></g></g></g></g></g></g></g></g></g></svg>