<?xml version="1.0" encoding="UTF-8" standalone="no"?>
<!-- Created with Inkscape (http://www.inkscape.org/) -->

<svg
   width="13.309143mm"
   height="50.845245mm"
   viewBox="0 0 13.309143 50.845245"
   version="1.1"
   id="svg5"
   xml:space="preserve"
   inkscape:export-filename="logo.svg"
   inkscape:export-xdpi="96"
   inkscape:export-ydpi="96"
   xmlns:inkscape="http://www.inkscape.org/namespaces/inkscape"
   xmlns:sodipodi="http://sodipodi.sourceforge.net/DTD/sodipodi-0.dtd"
   xmlns="http://www.w3.org/2000/svg"
   xmlns:svg="http://www.w3.org/2000/svg"><sodipodi:namedview
     id="namedview7"
     pagecolor="#ffffff"
     bordercolor="#000000"
     borderopacity="0.25"
     inkscape:showpageshadow="2"
     inkscape:pageopacity="0.0"
     inkscape:pagecheckerboard="0"
     inkscape:deskcolor="#d1d1d1"
     inkscape:document-units="mm"
     showgrid="false"
     showguides="true" /><defs
     id="defs2" /><style
     type="text/css"
     id="style6092">
	.st0{fill-rule:evenodd;clip-rule:evenodd;fill:#5F6368;}
	.st1{fill-rule:evenodd;clip-rule:evenodd;fill:#FBBC04;}
	.st2{fill-rule:evenodd;clip-rule:evenodd;fill:#34A853;}
	.st3{fill-rule:evenodd;clip-rule:evenodd;fill:#4285F4;}
</style><path
     d="m 5.186467,41.913437 c -0.93522,-1.6118 -1.64068,-2.8337 -2.35377,-4.05093 -0.24082,-0.41155 -0.47568,-0.83075 -0.76024,-1.21129 -0.39838,-0.53174 -0.80059,-1.31025 -1.60245,-0.87364 -0.75769,0.4124 -0.41495,1.22106 -0.23274,1.84751 0.18857,0.64854 0.49012,1.26905 0.78657,1.88064 1.3353,2.75682 2.67655,5.51153 4.03819,8.25561 0.36185,0.72966 0.73093,1.47504 1.2236,2.11593 1.0397,1.35314 2.03141,1.29368 2.81246,-0.2166 1.03249,-1.99532 1.94987,-4.05051 2.90336,-6.08617 0.4039,-0.86302 0.83031,-1.72349 1.13611,-2.62262 0.17286,-0.50796 0.12062,-1.09236 0.17158,-1.66488 -1.19005,-0.15375 -1.43808,0.52367 -1.75067,1.11615 -0.79507,1.50604 -1.58419,3.01505 -2.38605,4.5177 -0.28286,0.52962 -0.5946,1.04352 -1.25461,1.56592 -0.0841,-0.74707 -0.20599,-1.49202 -0.24676,-2.24165 -0.31089,-5.71751 -0.60989,-11.43587 -0.90592,-17.15424 -0.43023,-8.30488 -0.8456,-16.6106 -1.29835,-24.9142103 C 5.429877,1.5000967 5.151637,0.83711668 4.944377,6.6799194e-6 3.801047,0.75812668 4.056297,1.6419567 4.075837,2.3928467 c 0.10618,4.08874 0.25695,8.1761903 0.39498,12.2640803 0.29688,8.78862 0.59503,17.57683 0.88851,26.36588 0.004,0.12911 -0.048,0.26078 -0.17286,0.89063"
     style="fill:#ffffff;fill-opacity:1;fill-rule:nonzero;stroke:none;stroke-width:0.0424715"
     id="path7906"
     inkscape:export-filename="./path7906.svg"
     inkscape:export-xdpi="96"
     inkscape:export-ydpi="96" /></svg>
