<?xml version="1.0" encoding="UTF-8" standalone="no"?>
<!-- Created with Inkscape (http://www.inkscape.org/) -->

<svg
   width="50.845245mm"
   height="13.309143mm"
   viewBox="0 0 50.845245 13.309143"
   version="1.1"
   id="svg5"
   xml:space="preserve"
   inkscape:export-filename="logo.svg"
   inkscape:export-xdpi="96"
   inkscape:export-ydpi="96"
   xmlns:inkscape="http://www.inkscape.org/namespaces/inkscape"
   xmlns:sodipodi="http://sodipodi.sourceforge.net/DTD/sodipodi-0.dtd"
   xmlns="http://www.w3.org/2000/svg"
   xmlns:svg="http://www.w3.org/2000/svg"><sodipodi:namedview
     id="namedview7"
     pagecolor="#ffffff"
     bordercolor="#000000"
     borderopacity="0.25"
     inkscape:showpageshadow="2"
     inkscape:pageopacity="0.0"
     inkscape:pagecheckerboard="0"
     inkscape:deskcolor="#d1d1d1"
     inkscape:document-units="mm"
     showgrid="false"
     showguides="true" /><defs
     id="defs2" /><style
     type="text/css"
     id="style6092">
	.st0{fill-rule:evenodd;clip-rule:evenodd;fill:#5F6368;}
	.st1{fill-rule:evenodd;clip-rule:evenodd;fill:#FBBC04;}
	.st2{fill-rule:evenodd;clip-rule:evenodd;fill:#34A853;}
	.st3{fill-rule:evenodd;clip-rule:evenodd;fill:#4285F4;}
</style><path
     d="m 41.913444,8.1226608 c -1.6118,0.93522 -2.8337,1.64068 -4.05093,2.3537702 -0.41155,0.24082 -0.83075,0.47568 -1.21129,0.76024 -0.53174,0.39838 -1.31025,0.80059 -0.87364,1.60245 0.4124,0.75769 1.22106,0.41495 1.84751,0.23274 0.64854,-0.18857 1.26905,-0.49012 1.88064,-0.78657 2.75682,-1.3353 5.51153,-2.6765502 8.25561,-4.0381902 0.72966,-0.36185 1.47504,-0.73093 2.11593,-1.2236 1.35314,-1.0397 1.29368,-2.03141 -0.2166,-2.81246 -1.99532,-1.03249 -4.05051,-1.94987 -6.08617,-2.90336 -0.86302,-0.4039 -1.72349,-0.83031 -2.62262,-1.13611 -0.50796,-0.17286 -1.09236,-0.12062 -1.66488,-0.1715799960009 C 39.133254,1.1900408 39.810674,1.4380708 40.403154,1.7506608 c 1.50604,0.79507 3.01505,1.58419 4.5177,2.38605 0.52962,0.28286 1.04352,0.5946 1.56592,1.25461 -0.74707,0.0841 -1.49202,0.20599 -2.24165,0.24676 -5.71751,0.31089 -11.43587,0.60989 -17.15424,0.90592 -8.30488,0.43023 -16.6106,0.8456 -24.9142102,1.29835 -0.67657,0.0369 -1.33954996,0.31514 -2.176659961323,0.5224 C 0.75813384,9.5080808 1.6419638,9.2528308 2.3928538,9.2332908 c 4.08874,-0.10618 8.1761902,-0.25695 12.2640802,-0.39498 8.78862,-0.29688 17.57683,-0.59503 26.36588,-0.88851 0.12911,-0.004 0.26078,0.048 0.89063,0.17286"
     style="fill:#ffffff;fill-opacity:1;fill-rule:nonzero;stroke:none;stroke-width:0.0424715"
     id="path7906"
     inkscape:export-filename="./path7906.svg"
     inkscape:export-xdpi="96"
     inkscape:export-ydpi="96" /></svg>
