<?xml version="1.0" encoding="UTF-8"?>
<!DOCTYPE svg PUBLIC "-//W3C//DTD SVG 1.1//EN" "http://www.w3.org/Graphics/SVG/1.1/DTD/svg11.dtd">
<!-- Creator: CorelDRAW X7 -->
<svg xmlns="http://www.w3.org/2000/svg" xml:space="preserve" width="1.48318in" height="0.525169in" version="1.1" style="shape-rendering:geometricPrecision; text-rendering:geometricPrecision; image-rendering:optimizeQuality; fill-rule:evenodd; clip-rule:evenodd"
viewBox="0 0 285 101"
 xmlns:xlink="http://www.w3.org/1999/xlink">
 <defs>
  <style type="text/css">
   <![CDATA[
    .fil0 {fill:#E6E6E6;fill-rule:nonzero}
   ]]>
  </style>
 </defs>
 <g id="Layer_x0020_1">
  <metadata id="CorelCorpID_0Corel-Layer"/>
  <path class="fil0" d="M105 13l-22 21 -19 19 -9 11c-6,6 -12,11 -19,14 -8,4 -15,6 -23,6 -4,0 -7,-1 -9,-3 -3,-2 -4,-4 -4,-7 0,-2 1,-4 2,-6 1,-2 3,-2 4,-2 1,0 2,0 3,0 1,1 1,2 1,3 0,1 0,2 -1,2 -1,1 -2,1 -2,1 -2,0 -3,-1 -3,-2l-1 0c-1,0 -1,0 -2,1 0,1 0,2 0,3 0,3 1,5 3,7 2,1 5,2 9,2 5,0 10,-1 15,-3 4,-2 9,-5 13,-8 4,-4 10,-10 17,-18l13 -13 -1 0c-17,15 -29,22 -37,22 -3,0 -5,0 -7,-1 -1,-2 -2,-3 -2,-5 0,-2 1,-5 3,-7 2,-3 3,-5 5,-7 1,-1 4,-4 9,-8 6,-4 10,-7 13,-10 3,-3 5,-6 6,-8 1,-2 2,-4 2,-6 0,-3 -1,-6 -4,-8 -3,-1 -6,-2 -10,-2 -6,0 -13,1 -20,4 -6,3 -12,6 -15,10 -4,4 -5,7 -5,10 0,2 1,4 2,5 2,1 4,2 7,2 6,0 13,-2 20,-6 7,-3 13,-8 19,-15l0 0c-6,8 -12,13 -18,17 -6,3 -13,5 -19,5 -5,0 -7,-1 -9,-2 -2,-2 -3,-4 -3,-6 0,-3 2,-7 6,-11 4,-4 10,-7 17,-10 6,-3 13,-4 18,-4 4,0 8,1 11,3 3,2 4,6 4,10 0,2 0,5 -2,8 -1,3 -3,5 -5,8 -3,2 -6,5 -11,9 -4,3 -8,7 -12,10 -3,3 -6,5 -6,6 -1,2 -2,3 -2,4 0,2 1,3 2,4 2,0 3,1 5,1 4,0 9,-2 14,-5 5,-3 12,-8 20,-15l10 -8c2,-1 5,-4 8,-7l15 -15 6 0zm119 15l0 0c-7,6 -13,11 -18,14 -5,4 -12,7 -21,10l-2 2c-13,15 -24,27 -33,35 -8,8 -15,12 -21,12 -4,0 -6,-2 -6,-6 0,-3 2,-6 6,-10 3,-4 9,-9 17,-14 8,-5 18,-10 30,-16 6,-8 14,-18 25,-29 -7,5 -12,9 -14,10 -2,2 -5,4 -8,6 -3,2 -6,4 -8,5 -3,1 -5,2 -7,2 -1,0 -2,-1 -2,-2 -1,0 -2,-1 -2,-2 0,-3 1,-5 2,-7 1,-2 2,-4 4,-6 2,-2 4,-4 7,-6 6,-4 9,-8 9,-10 0,-1 -1,-2 -2,-2 -2,0 -5,2 -9,4 -3,3 -7,6 -12,10l0 0c-6,6 -12,10 -17,14 -7,4 -12,7 -15,7 -2,0 -3,-2 -3,-4 0,-2 1,-5 3,-8 2,-3 5,-8 9,-13l2 -2 -3 3c-8,8 -15,13 -21,17 -6,4 -10,7 -13,7 -3,0 -4,-2 -4,-5 0,-2 0,-4 1,-6 2,-2 3,-4 5,-7 2,-2 4,-4 6,-7 2,-2 4,-4 6,-6l-5 2c-5,4 -8,6 -10,8l0 -1c4,-4 10,-9 18,-13l8 0 -22 25c-3,4 -5,6 -5,7 0,1 0,1 2,1 3,0 9,-3 17,-10 8,-6 17,-14 27,-23l8 0 -23 26c0,0 -1,1 -1,2 -1,1 -2,1 -2,2 -1,1 -1,2 -1,2 0,1 1,1 2,1 2,0 7,-2 13,-6 7,-5 14,-10 20,-17l0 1c4,-4 8,-7 11,-9 3,-2 6,-3 8,-3 2,0 3,1 3,4 0,6 -3,12 -11,19 -6,5 -9,8 -9,10 0,1 1,1 2,1 2,0 7,-2 13,-6 6,-4 12,-9 18,-14 7,-5 12,-10 15,-13l8 0 -32 36c8,-3 14,-6 19,-10 5,-3 12,-9 20,-16l0 1c4,-4 9,-8 16,-11l8 0 -22 25c-3,4 -5,6 -5,7 0,1 0,1 1,1 4,0 10,-3 18,-10 8,-6 17,-14 27,-23l8 0 -23 26c0,0 -1,1 -2,2 0,1 -1,1 -1,2 -1,1 -1,2 -1,2 0,1 1,1 2,1 2,0 7,-2 13,-6 7,-5 14,-10 20,-17l0 2c-7,7 -13,12 -20,16 -6,4 -11,7 -14,7 -2,0 -3,-2 -3,-4 0,-2 1,-5 3,-8 2,-3 5,-8 9,-13l2 -2 -4 3c-8,8 -14,13 -20,17 -6,4 -10,7 -14,7 -2,0 -3,-2 -3,-5 0,-2 0,-4 1,-6 1,-2 3,-4 5,-7 1,-2 3,-4 5,-7 2,-2 5,-4 7,-6l-5 2c-5,4 -8,6 -10,8zm-50 29c-14,7 -26,14 -35,21 -10,7 -15,13 -15,17 0,2 1,3 2,3 1,1 2,1 3,1 2,0 5,0 7,-2 3,-2 7,-4 10,-7 4,-4 8,-8 13,-14 2,-3 5,-7 8,-10 3,-4 5,-7 7,-9z"/>
 </g>
</svg>
