<?xml version="1.0" encoding="UTF-8"?>
<!DOCTYPE svg PUBLIC "-//W3C//DTD SVG 1.1//EN" "http://www.w3.org/Graphics/SVG/1.1/DTD/svg11.dtd">
<!-- Creator: CorelDRAW X7 -->
<svg xmlns="http://www.w3.org/2000/svg" xml:space="preserve" width="3.4656in" height="1.22815in" version="1.1" style="shape-rendering:geometricPrecision; text-rendering:geometricPrecision; image-rendering:optimizeQuality; fill-rule:evenodd; clip-rule:evenodd"
viewBox="0 0 1848 655"
 xmlns:xlink="http://www.w3.org/1999/xlink">
 <defs>
  <style type="text/css">
   <![CDATA[
    .fil0 {fill:#373435;fill-rule:nonzero}
   ]]>
  </style>
 </defs>
 <g id="Layer_x0020_1">
  <metadata id="CorelCorpID_0Corel-Layer"/>
  <path class="fil0" d="M681 84l-143 136 -123 124 -58 71c-39,39 -78,71 -124,91 -51,26 -97,39 -149,39 -26,0 -45,-7 -58,-20 -20,-13 -26,-26 -26,-45 0,-13 6,-26 13,-39 6,-13 19,-13 26,-13 6,0 13,0 19,0 7,6 7,13 7,19 0,7 0,13 -7,13 -6,7 -13,7 -13,7 -13,0 -19,-7 -19,-13l-7 0c-6,0 -6,0 -13,6 0,7 0,13 0,20 0,19 7,32 20,45 13,7 32,13 58,13 33,0 65,-6 98,-19 25,-13 58,-33 84,-52 26,-26 65,-65 110,-117l84 -84 -6 0c-110,97 -188,142 -240,142 -20,0 -32,0 -45,-6 -7,-13 -13,-20 -13,-32 0,-13 6,-33 19,-46 13,-19 19,-32 32,-45 7,-7 26,-26 59,-52 39,-26 65,-45 84,-65 20,-19 32,-39 39,-52 6,-13 13,-26 13,-39 0,-19 -7,-39 -26,-52 -19,-6 -39,-13 -65,-13 -39,0 -84,7 -129,26 -39,20 -78,39 -98,65 -26,26 -32,46 -32,65 0,13 6,26 13,32 13,7 26,13 45,13 39,0 84,-13 130,-38 45,-20 84,-52 123,-98l0 0c-39,52 -78,85 -117,111 -39,19 -84,32 -123,32 -32,0 -45,-7 -58,-13 -13,-13 -20,-26 -20,-39 0,-19 13,-45 39,-71 26,-26 65,-46 110,-65 39,-20 85,-26 117,-26 26,0 52,6 71,19 20,13 26,39 26,65 0,13 0,33 -13,52 -6,20 -19,33 -32,52 -19,13 -39,32 -71,58 -26,20 -52,46 -78,65 -20,20 -39,33 -39,39 -6,13 -13,20 -13,26 0,13 7,19 13,26 13,0 19,6 32,6 26,0 59,-13 91,-32 33,-19 78,-52 130,-97l65 -52c13,-7 32,-26 52,-45l97 -98 39 0 0 0zm771 98l0 0c-45,38 -84,71 -116,90 -33,26 -78,46 -137,65l-13 13c-84,97 -155,175 -214,227 -51,52 -97,78 -136,78 -26,0 -39,-13 -39,-39 0,-20 13,-39 39,-65 20,-26 59,-58 111,-91 51,-32 116,-65 194,-103 39,-52 91,-117 162,-188 -45,32 -78,58 -91,64 -13,13 -32,26 -52,39 -19,13 -38,26 -51,33 -20,6 -33,13 -46,13 -6,0 -13,-7 -13,-13 -6,0 -13,-7 -13,-13 0,-20 7,-33 13,-46 7,-13 13,-26 26,-39 13,-13 26,-25 46,-38 38,-26 58,-52 58,-65 0,-7 -7,-13 -13,-13 -13,0 -32,13 -58,26 -20,19 -46,39 -78,65l0 0c-39,38 -78,64 -110,90 -46,26 -78,46 -98,46 -13,0 -19,-13 -19,-26 0,-13 6,-33 19,-52 13,-20 33,-52 59,-84l13 -13 -20 19c-52,52 -97,84 -136,110 -39,26 -65,46 -84,46 -20,0 -26,-13 -26,-33 0,-13 0,-26 6,-39 13,-13 20,-26 33,-45 13,-13 26,-26 39,-45 13,-13 26,-26 39,-39l-33 13c-32,26 -52,39 -65,52l0 -7c26,-26 65,-58 117,-84l52 0 -143 162c-19,26 -32,39 -32,45 0,7 0,7 13,7 19,0 58,-20 110,-65 52,-39 110,-91 175,-149l52 0 -149 168c0,0 -7,7 -7,13 -6,7 -13,7 -13,13 -6,7 -6,13 -6,13 0,7 6,7 13,7 13,0 45,-13 84,-39 45,-33 91,-65 130,-110l0 6c26,-26 52,-45 71,-58 20,-13 39,-20 52,-20 13,0 19,7 19,26 0,39 -19,78 -71,123 -39,33 -58,52 -58,65 0,7 6,7 13,7 13,0 45,-13 84,-39 39,-26 78,-59 117,-91 45,-32 77,-65 97,-84l52 0 -208 233c52,-19 91,-39 124,-65 32,-19 77,-58 129,-103l0 6c26,-26 59,-52 104,-71l52 0 -143 162c-19,26 -32,39 -32,45 0,7 0,7 6,7 26,0 65,-20 117,-65 52,-39 110,-91 175,-149l52 0 -149 168c0,0 -7,7 -13,13 0,7 -7,7 -7,13 -6,7 -6,13 -6,13 0,7 6,7 13,7 13,0 45,-13 84,-39 45,-33 91,-65 130,-110l0 13c-46,45 -85,77 -130,103 -39,26 -71,46 -91,46 -13,0 -19,-13 -19,-26 0,-13 6,-33 19,-52 13,-20 33,-52 59,-84l13 -13 -26 19c-52,52 -91,84 -130,110 -39,26 -65,46 -91,46 -13,0 -19,-13 -19,-33 0,-13 0,-26 6,-39 7,-13 20,-26 33,-45 6,-13 19,-26 32,-45 13,-13 32,-26 45,-39l-32 13c-32,26 -52,39 -65,52l0 0zm-324 188c-91,45 -169,90 -227,136 -65,45 -97,84 -97,110 0,13 6,19 13,19 6,7 13,7 19,7 13,0 33,0 46,-13 19,-13 45,-26 65,-46 25,-25 51,-51 84,-90 13,-20 32,-46 52,-65 19,-26 32,-46 45,-58l0 0z"/>
 </g>
</svg>
