<svg xmlns="http://www.w3.org/2000/svg" xmlns:xlink="http://www.w3.org/1999/xlink" xmlns:xodm="http://www.corel.com/coreldraw/odm/2003" xml:space="preserve" width="274px" height="114px" style="shape-rendering:geometricPrecision; text-rendering:geometricPrecision; image-rendering:optimizeQuality; fill-rule:evenodd; clip-rule:evenodd" viewBox="0 0 105.77 44.23"> <defs> <style type="text/css"> .fil1 {fill:#023047} .fil0 {fill:#023047;fill-rule:nonzero} </style> </defs> <g id="Layer_x0020_1"> <metadata id="CorelCorpID_0Corel-Layer"></metadata> <path class="fil0" d="M33.36 7.04l0 -5.8c0,-0.81 -0.38,-1.24 -1.19,-1.24l-25.02 0c-5.02,0 -7.03,2.36 -7.03,6.42l0 1.97c0,4.1 1.81,5.91 6.37,6.49l16.86 2.13c0.97,0.12 1.24,0.43 1.24,1.39l0 0.78c0,1.23 -0.35,1.66 -1.66,1.66l-22.47 0 0 7.3 25.06 0c6.22,0 8.27,-2.51 8.27,-7.15l0 -2.24c0,-4.25 -1.59,-6.07 -6.07,-6.69l-17.47 -2.43c-1.01,-0.16 -1.32,-0.31 -1.32,-1.4l0 -0.69c0,-0.89 0.35,-1.35 1.43,-1.35l14.85 0c0.31,0 0.46,0.15 0.46,0.46l0 3.09 0.31 0 7.38 -2.7z"></path> <path class="fil0" d="M55.01 21.15c-0.12,0.23 -0.28,0.31 -0.55,0.31l-0.42 0c-0.27,0 -0.43,-0.08 -0.54,-0.31l-10.36 -21.15 -9.4 0 0 0.31 14 26.95c0.35,0.65 0.65,0.88 1.54,0.88l9.78 0c0.82,0 1.16,-0.19 1.51,-0.88l14.11 -26.95 0 -0.31 -9.24 0 -10.43 21.15z"></path> <path class="fil1" d="M97.68 20.37c0,0.27 -0.16,0.47 -0.43,0.47l-13.34 0c-3.05,0 -4.21,-1.16 -4.21,-4.56l0 -4.95c0,-3.44 1.16,-4.49 4.21,-4.49l13.46 0c0.23,0 0.35,0.12 0.35,0.39l0 2.71 0.31 0 7.38 -2.71 0 -6.07c0,-0.77 -0.35,-1.16 -1.12,-1.16l-21.07 0c-8.39,0 -11.48,4.37 -11.48,11.17l0 5.8c0,6.81 3.09,11.17 11.48,11.17l21.18 0c0.7,0 0.97,-0.38 0.97,-1.08l0 -13.8c-4.32,0 -8.64,0 -12.97,0l0 5.71 5.28 -0.47 0 1.87z"></path> <path class="fil1" d="M9.49 30.71l85.13 0 0 -0.01 11.03 0 0 0.94c0.08,0.19 0.12,0.39 0.12,0.61l0 10.43c0,0.22 -0.04,0.42 -0.12,0.61l0 0.94 -11.03 0 0 -0.01 -85.13 0 0 0.01 -9.49 0 0 -1.55 0 -10.43 0 -1.55 9.49 0 0 0.01zm20.7 10.05c-0.1,0.09 -0.26,0.14 -0.45,0.14l-3.93 0c-0.95,0 -1.67,-0.16 -2.15,-0.49 -0.51,-0.34 -0.76,-0.84 -0.76,-1.51l0 -4.31c0,-0.18 0.06,-0.33 0.18,-0.42 0.12,-0.09 0.27,-0.14 0.48,-0.14 0.2,0 0.36,0.05 0.48,0.14 0.13,0.09 0.19,0.23 0.19,0.42l0 4.28c0,0.31 0.12,0.53 0.37,0.69 0.27,0.16 0.68,0.25 1.26,0.25l3.88 0c0.19,0 0.35,0.04 0.45,0.13 0.12,0.1 0.18,0.23 0.18,0.41 0,0.18 -0.06,0.32 -0.18,0.41zm11.3 -1.2c0.24,-0.14 0.36,-0.36 0.36,-0.65l0 -2.86c0,-0.28 -0.12,-0.5 -0.35,-0.64 -0.26,-0.16 -0.66,-0.24 -1.2,-0.24l-2.06 0c-0.53,0 -0.93,0.08 -1.19,0.24 -0.24,0.14 -0.35,0.36 -0.35,0.64l0 2.86c0,0.29 0.12,0.51 0.35,0.65 0.26,0.16 0.67,0.25 1.21,0.25l2.02 0c0.55,0 0.95,-0.09 1.21,-0.25zm0.93 0.86c-0.48,0.32 -1.2,0.48 -2.15,0.48l-2 0c-0.94,0 -1.66,-0.16 -2.15,-0.48 -0.5,-0.33 -0.76,-0.83 -0.76,-1.49l0 -2.9c0,-0.65 0.25,-1.14 0.75,-1.47 0.48,-0.32 1.18,-0.48 2.12,-0.48l2.09 0c0.93,0 1.64,0.16 2.11,0.48 0.5,0.33 0.75,0.82 0.75,1.47l0 2.9c0,0.66 -0.25,1.16 -0.76,1.49zm13.5 -0.01c-0.49,0.32 -1.21,0.49 -2.15,0.49l-2.12 0c-0.95,0 -1.67,-0.16 -2.15,-0.49 -0.51,-0.34 -0.77,-0.84 -0.77,-1.51l0 -2.91c0,-0.64 0.25,-1.13 0.75,-1.45 0.48,-0.31 1.19,-0.46 2.12,-0.46l2.2 0c0.19,0 0.35,0.04 0.46,0.13 0.12,0.1 0.18,0.24 0.18,0.42 0,0.17 -0.06,0.31 -0.18,0.41 -0.11,0.09 -0.27,0.13 -0.46,0.13l-2.18 0c-0.54,0 -0.94,0.08 -1.2,0.23 -0.23,0.14 -0.35,0.34 -0.35,0.61l0 2.86c0,0.31 0.12,0.53 0.36,0.69 0.27,0.16 0.69,0.25 1.26,0.25l2.03 0c0.56,0 0.98,-0.09 1.25,-0.26 0.25,-0.15 0.37,-0.38 0.37,-0.68l0 -1.78c0,-0.37 0.23,-0.55 0.67,-0.55 0.45,0 0.67,0.18 0.67,0.55l0 1.81c0,0.67 -0.26,1.17 -0.76,1.51zm12.44 -0.85c0.24,-0.14 0.36,-0.36 0.36,-0.65l0 -2.86c0,-0.28 -0.12,-0.5 -0.35,-0.64 -0.26,-0.16 -0.66,-0.24 -1.2,-0.24l-2.06 0c-0.53,0 -0.93,0.08 -1.19,0.24 -0.24,0.14 -0.35,0.36 -0.35,0.64l0 2.86c0,0.29 0.12,0.51 0.35,0.65 0.26,0.16 0.67,0.25 1.21,0.25l2.02 0c0.55,0 0.95,-0.09 1.21,-0.25zm0.93 0.86c-0.48,0.32 -1.2,0.48 -2.15,0.48l-2 0c-0.94,0 -1.66,-0.16 -2.15,-0.48 -0.5,-0.33 -0.76,-0.83 -0.76,-1.49l0 -2.9c0,-0.65 0.25,-1.14 0.75,-1.47 0.48,-0.32 1.18,-0.48 2.12,-0.48l2.09 0c0.93,0 1.64,0.16 2.11,0.48 0.5,0.33 0.75,0.82 0.75,1.47l0 2.9c0,0.66 -0.25,1.16 -0.76,1.49zm12.79 -3.19c0.53,0.28 0.79,0.7 0.79,1.25l0 0.76c0,0.57 -0.27,0.99 -0.8,1.26 -0.5,0.27 -1.24,0.4 -2.21,0.4l-3.81 0c-0.2,0 -0.35,-0.05 -0.46,-0.14 -0.12,-0.09 -0.18,-0.23 -0.18,-0.41 0,-0.18 0.06,-0.31 0.18,-0.41 0.11,-0.09 0.26,-0.13 0.46,-0.13l3.81 0c0.59,0 1.02,-0.07 1.31,-0.19 0.24,-0.1 0.36,-0.24 0.36,-0.43l0 -0.67c0,-0.18 -0.11,-0.32 -0.34,-0.42 -0.27,-0.12 -0.68,-0.18 -1.24,-0.18l-1.77 0c-0.88,0 -1.55,-0.12 -2,-0.37 -0.48,-0.26 -0.73,-0.65 -0.73,-1.18l0 -0.68c0,-0.55 0.25,-0.96 0.75,-1.23 0.46,-0.25 1.14,-0.38 2.04,-0.38l3.99 0c0.19,0 0.34,0.05 0.45,0.13 0.12,0.1 0.18,0.24 0.18,0.42 0,0.17 -0.06,0.31 -0.18,0.41 -0.11,0.09 -0.26,0.13 -0.45,0.13l-3.98 0c-0.51,0 -0.9,0.06 -1.15,0.17 -0.21,0.09 -0.31,0.22 -0.31,0.38l0 0.59c0,0.16 0.1,0.29 0.29,0.37 0.23,0.11 0.6,0.16 1.09,0.16l1.71 0c0.96,0 1.7,0.13 2.2,0.39z"></path> </g> </svg>