<svg xmlns="http://www.w3.org/2000/svg" xmlns:xlink="http://www.w3.org/1999/xlink" xml:space="preserve" width="2.15089in" height="0.784287in" style="shape-rendering:geometricPrecision; text-rendering:geometricPrecision; image-rendering:optimizeQuality; fill-rule:evenodd; clip-rule:evenodd" viewBox="0 0 727 265"> <defs> <style type="text/css"> .fil5 {fill:black;fill-rule:nonzero} .fil4 {fill:#5C7589;fill-opacity:0.788235} .fil1 {fill:#6E6E71;fill-opacity:0.788235} .fil3 {fill:white;fill-opacity:0.839216} .fil2 {fill:#4CBFB1;fill-opacity:0.909804} .fil0 {fill:#F05D40;fill-opacity:0.909804} </style> </defs> <g id="Layer_x0020_1"> <metadata id="CorelCorpID_0Corel-Layer"></metadata> <g id="_3055904241104"> <polygon class="fil0" points="0,0 99,0 99,265 0,265 "></polygon> <path class="fil1" d="M99 67c55,0 99,44 99,99 0,55 -44,99 -99,99 -55,0 -99,-44 -99,-99 0,-55 44,-99 99,-99zm0 37c34,0 62,28 62,62 0,34 -28,62 -62,62 -34,0 -62,-28 -62,-62 0,-34 28,-62 62,-62z"></path> <path class="fil2" d="M93 265l-93 0 0 -96 0 0c2,51 42,93 93,96l0 0z"></path> <path class="fil3" d="M99 104c34,0 62,28 62,62 0,34 -28,62 -62,62 -34,0 -62,-28 -62,-62 0,-34 28,-62 62,-62z"></path> <path class="fil4" d="M99 67c55,0 99,44 99,99 0,55 -44,99 -99,99l0 -37 0 0c34,0 62,-28 62,-62 0,-34 -28,-62 -62,-62l0 0 0 -37z"></path> <g> <path class="fil5" d="M234 52l7 0 0 23c2,-3 6,-5 10,-5 4,0 8,1 11,4 3,4 5,9 5,15 0,6 -2,11 -5,14 -3,3 -7,5 -11,5 -5,0 -8,-2 -10,-6l0 5 -7 0 0 -55zm17 24c-3,0 -5,1 -7,3 -2,2 -3,5 -3,8l0 4c0,3 1,6 3,8 2,2 4,3 7,3 2,0 4,-1 5,-2 2,-3 4,-6 4,-11 0,-5 -1,-9 -4,-11 -1,-1 -3,-2 -5,-2zm34 -1c4,-3 8,-5 14,-5l0 7c-1,0 -2,0 -3,0 -4,0 -7,1 -9,4 -3,3 -4,5 -5,8l0 18 -7 0 0 -36 7 0 0 9c1,-2 2,-3 3,-5zm19 7c1,-3 2,-6 4,-8 3,-3 6,-4 10,-4 6,0 10,1 12,4 2,2 3,4 3,7l0 21c0,2 1,4 3,5l-8 0c-1,-1 -1,-2 -1,-4 -3,3 -7,5 -12,5 -4,0 -8,-1 -10,-4 -2,-2 -3,-4 -3,-6 0,-3 1,-6 3,-8 2,-2 5,-3 9,-4 3,0 5,-1 7,-2 3,0 5,-1 6,-1 0,-2 -1,-4 -2,-5 -1,-1 -3,-2 -6,-2 -3,0 -5,1 -6,2 -1,1 -1,2 -2,4l-7 0zm23 7c-1,0 -3,0 -4,1 -3,0 -6,1 -8,2 -2,0 -3,1 -4,1 -1,2 -2,3 -2,4 0,2 1,3 2,4 1,1 2,1 4,1 4,0 7,-1 9,-4 2,-1 3,-2 3,-3l0 -6zm23 18l-6 0 0 -36 6 0 0 6c4,-4 8,-7 12,-7 5,0 8,2 11,4 1,2 2,4 2,6l0 27 -6 0 0 -25c0,-2 -1,-3 -2,-5 -2,-1 -3,-2 -6,-2 -2,0 -4,2 -6,4 -3,3 -5,6 -5,10l0 18zm60 -55l7 0 0 55 -7 0 0 -5c-2,4 -5,6 -9,6 -5,0 -9,-2 -11,-4 -4,-4 -6,-9 -6,-15 0,-6 2,-11 5,-15 3,-3 6,-4 10,-4 5,0 9,2 11,5l0 -23zm-10 24c-2,0 -4,1 -6,2 -2,2 -3,6 -3,11 0,5 1,8 4,11 1,1 3,2 5,2 3,0 5,-1 7,-3 2,-2 3,-6 3,-10 0,-5 -1,-8 -4,-11 -1,-1 -3,-2 -6,-2zm26 -24l7 0 0 9 -7 0 0 -9zm0 19l7 0 0 36 -7 0 0 -36zm20 -13l6 0 0 13 11 0 0 5 -11 0 0 21c0,1 1,2 2,4 1,0 2,1 4,1 3,0 6,-1 8,-2l0 6c-2,1 -5,2 -8,2 -4,0 -7,-1 -9,-3 -2,-2 -3,-5 -3,-7l0 -22 -8 0 0 -5 8 0 0 -13zm25 31c0,-6 2,-11 5,-14 3,-3 7,-5 12,-5 5,0 8,2 12,5 3,3 4,8 4,14l-26 0c0,4 1,8 3,10 2,2 5,3 8,3 3,0 5,-1 6,-2 2,-2 2,-3 2,-5l7 0c0,4 -2,7 -4,8 -3,3 -6,5 -11,5 -6,0 -10,-2 -13,-5 -3,-4 -5,-8 -5,-14zm17 -13c-3,0 -5,1 -7,2 -1,2 -2,4 -3,6l19 0c0,-2 -1,-4 -3,-6 -1,-1 -4,-2 -6,-2zm24 13c0,-5 2,-10 5,-14 3,-3 7,-4 12,-4 5,0 9,1 12,3 2,3 3,6 4,9l-7 0c0,-2 -1,-3 -3,-5 -1,-1 -3,-2 -6,-2 -2,0 -4,1 -6,3 -3,3 -4,6 -4,11 0,4 1,7 4,10 1,1 4,2 6,2 3,0 6,-1 7,-2 2,-2 3,-4 3,-7l7 0c0,4 -2,8 -5,11 -2,3 -6,4 -12,4 -4,0 -8,-2 -11,-5 -4,-3 -6,-8 -6,-14zm42 -37l7 0 0 25c3,-4 7,-7 12,-7 4,0 7,1 10,4 2,2 3,4 3,7l0 26 -7 0 0 -24c0,-3 0,-4 -2,-6 -1,-1 -2,-2 -4,-2 -3,0 -5,1 -7,3 -2,3 -4,6 -5,10l0 19 -7 0 0 -55zm44 6l7 0 0 13 11 0 0 5 -11 0 0 21c0,1 0,2 1,4 1,0 3,1 5,1 3,0 5,-1 8,-2l0 6c-3,1 -5,2 -8,2 -4,0 -8,-1 -9,-3 -3,-2 -4,-5 -4,-7l0 -22 -7 0 0 -5 7 0 0 -13zm26 13l7 0 0 24c0,3 0,5 2,6 1,1 2,1 4,1 3,0 5,-1 8,-3 3,-3 4,-6 4,-10l0 -18 7 0 0 36 -7 0 0 -6c-3,4 -7,7 -12,7 -5,0 -8,-1 -10,-3 -2,-2 -3,-5 -3,-8l0 -26zm51 4c4,-3 8,-5 14,-5l0 7c-1,0 -2,0 -4,0 -3,0 -6,1 -9,4 -2,3 -4,5 -4,8l0 18 -7 0 0 -36 7 0 0 9c1,-2 2,-3 3,-5zm18 14c0,-6 2,-11 6,-14 3,-3 7,-5 11,-5 5,0 9,2 12,5 3,3 4,8 4,14l-26 0c0,4 1,8 3,10 2,2 5,3 8,3 3,0 5,-1 6,-2 2,-2 3,-3 3,-5l7 0c-1,4 -3,7 -5,8 -2,3 -6,5 -11,5 -5,0 -9,-2 -13,-5 -3,-4 -5,-8 -5,-14zm17 -13c-3,0 -5,1 -7,2 -1,2 -2,4 -2,6l18 0c0,-2 -1,-4 -3,-6 -1,-1 -3,-2 -6,-2z"></path> <path class="fil5" d="M234 51l7 0 0 0 0 1 0 22c1,-1 3,-2 4,-3l0 0c2,-1 4,-2 6,-2 2,0 4,1 6,2 2,0 3,1 5,3l0 0c2,2 3,4 4,6 1,3 1,6 1,9 0,3 0,6 -1,8 -1,3 -2,5 -4,7 -2,1 -3,2 -5,3 -2,1 -4,1 -6,1 -3,0 -5,0 -7,-1 -1,-1 -2,-2 -3,-3l0 3 0 0 0 0 -7 0 0 0 0 0 0 -55 0 -1 0 0zm6 1l-5 0 0 54 5 0 0 -4 1 0c1,2 2,3 4,4 1,1 3,1 6,1 2,0 4,0 6,-1 1,-1 3,-2 4,-3 2,-2 3,-4 4,-6 1,-2 1,-5 1,-8 0,-3 0,-6 -1,-8 -1,-3 -2,-5 -4,-6 -1,-2 -3,-3 -4,-3 -2,-1 -4,-2 -6,-2 -2,0 -4,1 -5,2l0 0c-2,1 -4,2 -5,3l-1 0 0 -23zm11 24c-2,0 -3,1 -4,1l0 0c-1,1 -2,1 -3,2 -1,1 -2,2 -2,4 -1,1 -1,2 -1,4l0 4c0,1 0,3 1,4 0,1 1,3 2,4l0 0c1,1 2,1 3,2 1,0 2,0 4,0 1,0 2,0 2,0 1,-1 2,-1 3,-2 2,-2 3,-5 3,-10 0,-5 -1,-8 -3,-10l0 0c-1,-1 -2,-2 -3,-2 0,-1 -1,-1 -2,-1zm-4 0c1,0 2,-1 4,-1 1,0 2,1 3,1 1,0 2,1 3,2l0 0c2,2 3,6 3,11 0,5 -1,8 -4,11 0,1 -1,1 -2,2 -1,0 -2,0 -3,0 -2,0 -3,0 -4,0 -1,-1 -2,-2 -3,-3l0 0c-2,-1 -2,-2 -3,-3 -1,-2 -1,-3 -1,-5l0 -4c0,-2 0,-3 1,-5 0,-1 1,-2 2,-3 1,-1 2,-2 4,-3l0 0zm38 -1l0 0c2,-2 4,-3 6,-4 3,-1 5,-1 8,-1l1 0 0 0 0 7 0 1 -1 0c0,0 -1,0 -1,0l0 0c-1,0 -2,0 -2,0 -2,0 -3,0 -5,1l0 0c-1,0 -3,1 -4,3 -1,1 -2,2 -3,3l0 0c-1,1 -1,3 -2,4l0 18 0 0 0 0 -7 0 0 0 0 0 0 -36 0 -1 0 0 7 0 0 0 0 1 0 7c1,0 1,0 1,-1 1,-1 1,-1 2,-2zm7 -3c-3,1 -5,2 -6,4l0 0c-1,0 -2,1 -2,2 -1,1 -1,1 -2,2l-1 0 0 -9 -5 0 0 35 5 0 0 -17 0 -1c1,-1 1,-2 2,-3 1,-2 2,-3 3,-4l0 0c2,-2 3,-3 5,-3l0 0c1,-1 3,-1 5,-1 0,0 1,0 2,0 0,0 0,0 1,0l0 -6c-3,0 -5,0 -7,1zm12 9c0,-1 0,-3 1,-4 1,-1 2,-2 3,-4 1,-1 3,-2 4,-2 2,-1 4,-1 6,-1 3,0 6,0 8,1 2,0 3,1 4,2 2,2 2,3 3,4l0 0c1,1 1,3 1,4l0 21c0,1 0,2 0,2l0 0c1,1 1,2 2,3l0 0 -8 0 0 0 0 0c-1,0 -1,-1 -1,-2 0,0 -1,-1 -1,-1 -1,1 -3,2 -4,3 -3,1 -5,1 -7,1 -2,0 -4,0 -6,-1l0 0c-2,0 -3,-1 -4,-2l0 0c-1,-1 -2,-2 -2,-4 -1,-1 -1,-2 -1,-3 0,-2 0,-3 1,-5 0,-1 1,-2 2,-3 1,-1 2,-2 4,-3l0 0c1,-1 3,-1 5,-1l0 0c1,-1 3,-1 4,-1 1,0 2,-1 3,-1l0 0c1,0 3,-1 3,-1l0 0c1,0 2,-1 2,-1 0,0 0,-1 0,-2 0,0 -1,-1 -1,-2 -1,0 -2,-1 -3,-1 0,0 -1,0 -3,0 -1,0 -2,0 -3,0 -1,0 -2,1 -3,1 0,1 0,1 -1,2l0 0c0,0 0,1 0,2l-1 0 0 0 -7 0 -1 0 1 -1zm2 -3c-1,1 -1,2 -1,3l6 0c0,-1 0,-1 0,-2l0 0c1,0 1,-1 2,-1l0 0c0,-1 1,-2 2,-2 2,0 3,0 4,0 2,0 3,0 4,0 1,0 2,1 2,2l0 0c1,0 1,1 2,2 0,1 0,2 0,3l0 0 0 0c0,0 -1,1 -2,1l0 0c-1,0 -2,1 -4,1 -1,0 -2,1 -3,1 -1,0 -2,0 -4,1 -1,0 -3,0 -5,1l0 0c-1,1 -2,2 -3,3 -1,1 -2,2 -2,3 -1,1 -1,2 -1,4 0,1 0,2 1,3 0,1 1,2 2,3l0 0c1,1 2,2 3,2l0 0c2,1 4,1 6,1 2,0 4,0 6,-1 2,-1 4,-2 5,-4l1 0 0 1c0,1 0,2 1,2 0,1 0,1 0,1l7 0c-1,0 -1,-1 -2,-1l0 0c0,-1 0,-2 0,-3l0 -21c0,-1 0,-2 -1,-3l0 0c0,-2 -1,-3 -2,-4 -1,-1 -3,-2 -5,-2 -2,-1 -4,-1 -7,-1 -2,0 -4,0 -5,1 -2,0 -3,1 -4,2 -1,1 -2,2 -3,4zm20 11c0,0 0,1 -1,1 0,0 -1,0 -2,0l0 0c-3,1 -6,2 -8,2l0 0c-1,0 -1,0 -2,1l0 0c-1,0 -1,0 -2,1 0,0 0,1 -1,1 0,1 0,1 0,2 0,1 0,1 0,2 1,0 1,1 1,2 1,0 1,0 2,0 0,0 1,0 2,0 2,0 4,0 5,-1 2,0 3,-1 4,-2 1,-1 1,-1 2,-2 0,0 0,-1 0,-1l0 -6zm-1 0c0,0 1,-1 2,-1l0 0 0 1 0 6 0 0c0,1 0,1 -1,2 0,0 -1,1 -1,2l0 0c-2,1 -3,2 -5,2 -1,1 -3,1 -5,1 -1,0 -2,0 -2,0l0 0c-1,0 -2,0 -2,-1 -1,0 -1,-1 -2,-2 0,0 0,-1 0,-2 0,-1 0,-1 0,-2 1,-1 1,-1 2,-2 0,0 1,-1 1,-1l0 0c1,0 2,-1 3,-1l0 0 0 0c2,0 5,-1 8,-2l0 0c1,0 1,0 2,0zm25 18l-6 0 -1 0 0 0 0 -36 0 -1 1 0 6 0 1 0 0 1 0 5c1,-2 3,-3 5,-4 2,-2 4,-2 6,-2 2,0 4,0 6,1 2,0 4,1 5,3l0 0c1,1 1,2 2,3 0,1 1,2 1,3l0 27 0 0 -1 0 -6 0 -1 0 0 0 0 -25c0,-1 0,-2 0,-2 -1,-1 -1,-2 -2,-2 0,-1 -1,-1 -2,-2 -1,0 -2,0 -3,0 -1,0 -2,0 -3,1 -1,0 -2,1 -3,2 -1,2 -3,3 -3,5 -1,2 -1,3 -1,5l0 18 0 0 -1 0zm-6 -1l5 0 0 -17c0,-2 1,-4 2,-6 1,-1 2,-3 3,-5 2,-1 3,-2 4,-2 1,-1 2,-1 3,-1 2,0 3,0 4,0 1,1 1,1 2,2l0 0c1,1 1,2 2,2 0,1 0,2 0,3l0 24 6 0 0 -26c0,-1 -1,-2 -1,-3l0 0c0,-1 -1,-2 -2,-2 -1,-2 -3,-3 -4,-3 -2,-1 -4,-1 -6,-1 -2,0 -4,0 -6,2 -2,1 -4,2 -6,5l-1 -1 0 -6 -5 0 0 35zm66 -55l7 0 0 0 0 1 0 55 0 0 0 0 -7 0 0 0 0 0 0 -3c-1,1 -3,2 -4,3 -1,1 -3,1 -5,1 -5,0 -9,-1 -11,-4l0 0c-2,-2 -4,-4 -5,-7 -1,-2 -1,-5 -1,-8 0,-3 0,-6 1,-9 1,-2 2,-4 4,-6 1,-2 3,-3 5,-3l0 0c1,-1 3,-2 5,-2 5,0 8,2 11,5l0 -22 0 -1 0 0zm6 1l-5 0 0 23 -1 1c-3,-4 -6,-6 -11,-6 -2,0 -3,1 -5,2l0 -1c-2,1 -3,2 -4,4 -2,1 -3,3 -4,6 -1,2 -1,5 -1,8 0,3 0,6 1,8 1,2 2,5 4,6l0 0c3,3 6,4 11,4 1,0 3,0 5,-1 1,-1 3,-2 4,-4l1 0 0 4 5 0 0 -54zm-16 24c-1,0 -2,0 -3,1 -1,0 -1,1 -2,2l0 0c-1,1 -2,2 -3,4 0,1 0,4 0,6 0,2 0,4 1,6 0,2 1,3 2,4l0 0c1,1 2,1 2,2 1,0 2,0 3,0 1,0 3,0 4,0 1,-1 1,-1 2,-2 1,-1 2,-3 3,-4 0,-2 1,-4 1,-6 0,-2 -1,-4 -1,-6 -1,-2 -2,-3 -3,-4l0 0c-1,-1 -2,-2 -3,-2 -1,-1 -2,-1 -3,-1zm-3 0c1,0 2,-1 3,-1 1,0 3,1 4,1 1,0 2,1 3,2l0 0c1,1 2,3 3,5 0,2 1,4 1,6 0,2 -1,4 -1,6 -1,2 -2,3 -3,5 -1,1 -2,1 -3,2 -1,0 -2,0 -4,0 -1,0 -2,0 -3,0 -1,-1 -2,-1 -3,-2l0 0c-1,-1 -2,-3 -2,-5 -1,-2 -1,-4 -1,-6 0,-3 0,-5 0,-7 1,-1 2,-3 3,-4l0 0c1,-1 2,-2 3,-2zm29 -24l7 0 0 0 0 0 0 9 0 0 0 0 -7 0 0 0 0 0 0 -9 0 0 0 0zm6 1l-5 0 0 7 5 0 0 -7zm-6 17l7 0 0 0 0 1 0 36 0 0 0 0 -7 0 0 0 0 0 0 -36 0 -1 0 0zm6 1l-5 0 0 35 5 0 0 -35zm14 -13l6 0 1 0 0 0 0 12 10 0 1 0 0 1 0 5 0 1 -1 0 -10 0 0 20c0,1 0,2 1,3l0 0c1,1 1,1 2,1 0,0 1,0 2,0 2,0 3,0 4,0 1,-1 3,-1 4,-2l1 0 0 1 0 6 0 0 -1 0c-1,1 -2,1 -3,2 -2,0 -3,0 -5,0 -2,0 -4,0 -5,-1 -2,0 -3,-1 -4,-2l0 0c-1,-1 -2,-2 -3,-3 0,-2 -1,-3 -1,-4l0 -21 -7 0 0 0 0 -1 0 -5 0 -1 0 0 7 0 0 -12 0 0 1 0zm6 1l-6 0 0 12 0 0 0 0 -7 0 0 5 7 0 0 0 0 0 0 22c0,1 1,2 1,3 1,1 1,2 2,3l0 0c1,1 3,2 4,2 2,1 3,1 5,1 2,0 3,0 4,0 1,-1 3,-1 4,-2l0 -5c-1,1 -2,1 -4,2 -1,0 -2,0 -4,0 -1,0 -2,0 -3,0 0,0 -1,-1 -1,-1l0 0c-2,-1 -2,-3 -2,-4l0 -21 0 0 0 0 11 0 0 -5 -11 0 0 0 0 0 0 -12zm18 30c0,-6 2,-11 6,-15 2,-1 3,-2 5,-3 2,-1 5,-1 7,-1 5,0 9,1 12,5l0 0c1,1 3,3 3,6 1,2 2,5 2,8l0 0 -1 0 -25 0c0,5 1,8 3,10 1,0 2,1 3,2 1,0 2,0 4,0 1,0 2,0 3,0 1,0 2,-1 3,-1 0,-1 1,-2 1,-3 1,0 1,-1 1,-2l0 -1 0 0 7 0 1 0 0 1c-1,2 -1,4 -2,5 -1,2 -1,3 -2,4l0 0c-2,1 -4,2 -6,3 -2,1 -4,1 -6,1 -3,0 -5,0 -8,-1 -2,-1 -4,-2 -5,-4l0 0c-2,-2 -3,-4 -4,-6 -1,-2 -2,-5 -2,-8zm7 -14c-4,4 -6,8 -6,14 0,3 1,5 2,8 1,2 2,4 3,5 2,2 4,3 6,4 2,1 4,1 7,1 2,0 4,0 6,-1 2,-1 4,-2 5,-3 1,-1 2,-2 2,-3 1,-2 1,-3 2,-5l-6 0c0,1 0,2 -1,3 0,1 -1,1 -2,2l0 0c0,1 -1,1 -2,2 -1,0 -3,0 -4,0 -2,0 -3,0 -5,0 -1,-1 -2,-2 -3,-3l0 0c-2,-2 -3,-5 -3,-10l0 -1 0 0 26 0c0,-2 -1,-5 -2,-7 0,-2 -1,-4 -3,-6 -3,-3 -7,-4 -11,-4 -2,0 -4,0 -6,1 -2,1 -4,2 -5,3l0 0zm11 1c-2,0 -3,0 -4,1 -1,0 -2,1 -2,2 -1,0 -2,1 -2,2 -1,1 -1,2 -1,2l17 0c0,-1 0,-1 0,-2 -1,-1 -1,-2 -2,-3 -1,0 -2,-1 -3,-1 -1,-1 -2,-1 -3,-1zm-4 0c1,-1 2,-1 4,-1 1,0 2,0 4,1 1,0 2,1 2,2l0 0c1,1 2,2 2,3 1,1 1,2 1,3l0 0 0 0 -19 0 0 0 0 0c0,-1 0,-2 1,-3 0,-1 1,-2 2,-3 1,-1 2,-2 3,-2zm28 13c0,-3 0,-5 1,-8 1,-2 2,-4 4,-6 2,-2 3,-3 5,-4 3,0 5,-1 7,-1 3,0 5,0 7,1 2,1 4,2 5,3l0 0c1,1 2,3 3,4 1,2 1,3 1,5l0 1 0 0 -7 0 -1 0 0 -1c0,-1 0,-1 0,-2 -1,-1 -1,-2 -2,-2l0 0c-1,-1 -1,-1 -2,-2 -1,0 -2,0 -4,0 -1,0 -2,0 -3,1 -1,0 -2,1 -3,1l0 0c-1,2 -2,3 -2,5 -1,1 -1,3 -1,6 0,2 0,4 1,5 0,2 1,3 2,4 1,1 2,2 3,2 1,0 2,1 3,1 2,0 3,-1 4,-1 1,0 2,-1 3,-2 1,-1 1,-2 2,-3 0,-1 0,-2 0,-3l0 -1 1 0 7 0 0 0 0 1c0,2 0,4 -1,6 -1,2 -2,4 -3,5l0 0c-2,2 -3,3 -6,3l0 0c-2,1 -4,1 -7,1 -2,0 -4,0 -6,-1l0 0c-2,0 -4,-2 -5,-3l0 0c-2,-2 -4,-4 -5,-7 -1,-2 -1,-5 -1,-8zm2 -7c-1,2 -1,4 -1,7 0,3 0,6 1,8 1,2 2,4 4,6l0 0c2,2 3,3 5,3 2,1 4,1 6,1 3,0 5,0 7,-1l0 0c2,0 4,-1 5,-3 1,-1 2,-2 3,-4 1,-2 1,-4 1,-6l-6 0c0,2 0,3 0,4 -1,1 -1,2 -2,3l0 0c-1,1 -2,2 -4,2 -1,0 -2,1 -4,1 -1,0 -2,-1 -4,-1 -1,0 -2,-1 -3,-2 -1,-1 -2,-3 -2,-5 -1,-1 -1,-3 -1,-5 0,-3 0,-5 1,-7 0,-1 1,-3 3,-4 1,-1 2,-2 3,-2 1,-1 2,-1 3,-1 2,0 3,0 4,0 1,1 2,1 3,2l0 0c0,1 1,2 1,2 1,1 1,2 1,3l6 0c0,-2 0,-3 -1,-4l0 0c-1,-2 -1,-3 -3,-4l0 0c-1,-1 -2,-2 -4,-3 -2,-1 -4,-1 -7,-1 -2,0 -4,1 -6,1 -2,1 -4,2 -5,4 -2,1 -3,3 -4,6zm40 -31l7 0 0 0 0 1 0 24c2,-2 3,-3 5,-4 2,-2 4,-2 7,-2 4,0 8,1 10,3 1,1 2,3 2,4 1,1 1,3 1,4l0 26 0 0 0 0 -7 0 0 0 0 0 0 -24c0,-1 0,-2 -1,-3 0,-1 -1,-2 -1,-3 -1,0 -1,0 -2,-1 -1,0 -2,0 -2,0 -2,0 -3,0 -4,1l0 0c-1,0 -2,1 -2,2l0 0c-2,1 -3,2 -4,4 0,1 -1,3 -2,5l0 19 0 0 0 0 -7 0 0 0 0 0 0 -55 0 -1 0 0zm6 1l-5 0 0 54 5 0 0 -18 0 0c1,-2 2,-4 3,-6 1,-1 2,-3 3,-4l0 0c1,-1 2,-2 3,-2 1,-1 2,-1 4,-1 1,0 2,0 2,0 1,1 2,1 2,2 1,1 2,1 2,2 1,1 1,3 1,4l0 23 5 0 0 -25c0,-1 0,-3 -1,-4 0,-1 -1,-2 -2,-3 -2,-2 -5,-3 -9,-3 -2,0 -4,0 -6,2 -2,1 -4,2 -6,5l-1 -1 0 -25zm38 6l7 0 0 0 0 0 0 12 11 0 0 0 0 1 0 5 0 1 0 0 -11 0 0 20c0,1 1,2 2,3l0 0c0,1 1,1 1,1 1,0 2,0 3,0 1,0 2,0 4,0 1,-1 2,-1 3,-2l1 0 0 1 0 6 0 0 0 0c-1,1 -3,1 -4,2 -1,0 -3,0 -4,0 -2,0 -4,0 -6,-1 -1,0 -3,-1 -4,-2l0 0c-1,-1 -2,-2 -2,-3 -1,-2 -1,-3 -1,-4l0 -21 -7 0 -1 0 0 -1 0 -5 0 -1 1 0 7 0 0 -12 0 0 0 0zm6 1l-5 0 0 12 0 0 -1 0 -7 0 0 5 7 0 1 0 0 0 0 22c0,1 0,2 1,3 0,1 1,2 2,3l0 0c1,1 2,2 3,2 2,1 4,1 6,1 1,0 3,0 4,0 1,-1 2,-1 3,-2l0 -5c-1,1 -2,1 -3,2 -1,0 -3,0 -4,0 -1,0 -2,0 -3,0 -1,0 -2,-1 -2,-1l0 0c-1,-1 -2,-3 -2,-4l0 -21 0 0 1 0 10 0 0 -5 -10 0 -1 0 0 0 0 -12zm20 11l7 0 0 0 0 1 0 24c0,1 0,2 1,3l0 0c0,1 0,2 1,3l0 0c1,0 1,0 2,1 1,0 1,0 2,0 2,0 3,0 4,-1 1,0 2,-1 3,-2l0 0c2,-2 3,-3 4,-5 1,-1 1,-3 1,-5l0 -18 0 -1 0 0 7 0 0 0 0 1 0 36 0 0 0 0 -7 0 0 0 0 0 0 -5c-2,2 -3,3 -5,4 -2,2 -5,2 -7,2 -2,0 -4,0 -6,-1 -2,0 -3,-1 -4,-2 -1,-1 -2,-2 -2,-3 -1,-2 -1,-3 -1,-5l0 -26 0 -1 0 0zm6 1l-5 0 0 26c0,2 0,3 1,4 0,1 1,2 2,3 1,1 2,2 3,2 2,1 4,1 6,1 2,0 4,0 6,-2 3,-1 4,-2 6,-5l1 1 0 5 5 0 0 -35 -5 0 0 18c0,2 0,4 -1,6 -1,1 -2,3 -4,5l0 0c-1,1 -2,2 -4,2 -1,1 -2,1 -4,1 -1,0 -2,0 -3,0 0,-1 -1,-1 -2,-2 0,0 -1,-1 -1,-2l0 0c-1,-1 -1,-3 -1,-4l0 -24zm45 4l0 0c2,-2 4,-3 6,-4 2,-1 5,-1 8,-1l1 0 0 0 0 7 0 1 -1 0c-1,0 -1,0 -2,0l0 0c0,0 -1,0 -2,0 -1,0 -3,0 -4,1l0 0c-1,0 -3,1 -4,3 -1,1 -2,2 -3,3l0 0c-1,1 -1,3 -2,4l0 18 0 0 0 0 -7 0 0 0 0 0 0 -36 0 -1 0 0 7 0 0 0 0 1 0 7c0,0 1,0 1,-1 1,-1 1,-1 2,-2zm6 -3c-2,1 -4,2 -5,4l0 0c-1,0 -2,1 -2,2 -1,1 -1,1 -2,2l-1 0 0 -9 -5 0 0 35 5 0 0 -17 0 -1c1,-1 1,-2 2,-3 1,-2 2,-3 3,-4l0 0c2,-2 3,-3 5,-3l0 0c1,-1 3,-1 4,-1 1,0 2,0 3,0 0,0 0,0 1,0l0 -6c-3,0 -6,0 -8,1zm12 17c0,-6 2,-11 5,-15 2,-1 4,-2 6,-3 2,-1 4,-1 6,-1 5,0 9,1 12,5l0 0c2,1 3,3 4,6 0,2 1,5 1,8l0 0 -1 0 -25 0c0,5 1,8 3,10 1,0 2,1 3,2 1,0 2,0 4,0 1,0 3,0 4,0 1,0 1,-1 2,-1 1,-1 1,-2 2,-3 0,0 0,-1 0,-2l0 -1 1 0 7 0 0 0 0 1c0,2 -1,4 -2,5 0,2 -1,3 -2,4l0 0c-2,1 -3,2 -5,3 -2,1 -5,1 -7,1 -3,0 -5,0 -7,-1 -2,-1 -4,-2 -6,-4l0 0c-2,-2 -3,-4 -4,-6 -1,-2 -1,-5 -1,-8zm6 -14c-4,4 -5,8 -5,14 0,3 0,5 1,8 1,2 2,4 4,5 1,2 3,3 5,4 2,1 4,1 7,1 2,0 4,0 6,-1 2,-1 4,-2 5,-3 1,-1 2,-2 2,-3 1,-2 2,-3 2,-5l-6 0c0,1 0,2 -1,3 0,1 -1,1 -1,2l0 0c-1,1 -2,1 -3,2 -1,0 -3,0 -4,0 -2,0 -3,0 -4,0 -2,-1 -3,-2 -4,-3l0 0c-2,-2 -3,-5 -3,-10l0 -1 0 0 26 0c0,-2 -1,-5 -1,-7 -1,-2 -2,-4 -4,-6 -3,-3 -6,-4 -11,-4 -2,0 -4,0 -6,1 -2,1 -4,2 -5,3l0 0zm11 1c-1,0 -2,0 -3,1 -1,0 -2,1 -3,2 -1,0 -1,1 -2,2 0,1 -1,2 -1,2l17 0c0,-1 0,-1 0,-2 -1,-1 -1,-2 -2,-3 -1,0 -2,-1 -3,-1 -1,-1 -2,-1 -3,-1zm-4 0c1,-1 3,-1 4,-1 1,0 3,0 4,1 1,0 2,1 3,2l0 0c1,1 1,2 2,3 0,1 0,2 0,3l0 0 0 0 -18 0 -1 0 0 0c0,-1 1,-2 1,-3 1,-1 1,-2 2,-3 1,-1 2,-2 3,-2z"></path> <path class="fil5" d="M235 150c0,-3 1,-5 3,-7 2,-3 6,-4 11,-4 5,0 9,1 11,3 2,3 3,5 3,7l-6 0c0,-1 -1,-2 -2,-3 -1,-1 -3,-2 -7,-2 -2,0 -3,1 -5,2 -1,1 -1,2 -1,4 0,1 0,1 1,2 0,1 3,2 8,3 2,1 5,1 7,2 1,0 3,1 4,2 1,2 2,4 2,6 0,3 -1,5 -3,7 -3,3 -7,4 -12,4 -5,0 -9,-1 -12,-4 -2,-2 -3,-5 -3,-8l6 0c1,2 1,4 2,4 1,2 4,3 7,3 3,0 6,-1 7,-2 1,-1 1,-2 1,-3 0,-1 0,-2 -1,-3 -1,-1 -2,-2 -4,-2 -4,-1 -7,-2 -9,-3 -2,0 -4,-1 -5,-2 -2,-2 -3,-4 -3,-6zm44 26l-6 0 0 -37 6 0 0 6c3,-4 6,-6 10,-6 4,0 7,1 9,3 1,1 2,2 3,4 3,-5 6,-7 11,-7 4,0 6,1 8,3 3,2 4,4 4,7l0 27 -7 0 0 -26c0,-1 0,-2 -1,-3 -1,-1 -3,-2 -5,-2 -3,0 -5,1 -7,3 -2,2 -3,3 -3,5l0 23 -6 0 0 -26c0,-1 -1,-2 -2,-3 -1,-2 -3,-2 -5,-2 -2,0 -4,1 -6,3 -2,1 -3,3 -3,5l0 23zm54 -26c1,-3 2,-5 4,-8 3,-2 6,-3 10,-3 6,0 10,1 12,3 2,3 3,5 3,8l0 20c0,2 1,4 3,6l-8 0c-1,-1 -1,-3 -1,-5 -3,4 -7,5 -12,5 -4,0 -8,-1 -10,-3 -2,-2 -3,-4 -3,-7 0,-3 1,-5 3,-7 2,-2 5,-4 9,-4 3,-1 5,-1 7,-2 3,-1 5,-1 6,-2 0,-2 -1,-3 -2,-4 -1,-2 -3,-2 -6,-2 -3,0 -5,0 -6,2 -1,0 -2,2 -2,3l-7 0zm23 7c-1,1 -3,1 -4,1 -3,1 -6,2 -8,2 -2,0 -3,1 -4,2 -1,1 -2,2 -2,4 0,1 1,2 2,3 1,1 2,1 4,1 4,0 7,-1 9,-3 2,-2 3,-3 3,-3l0 -7zm17 -36l7 0 0 55 -7 0 0 -55zm18 0l6 0 0 55 -6 0 0 -55zm33 0l7 0 0 23c3,-4 6,-5 10,-5 4,0 8,1 11,4 3,3 5,8 5,14 0,7 -2,12 -5,15 -3,3 -7,4 -11,4 -5,0 -8,-2 -10,-5l0 5 -7 0 0 -55zm17 23c-3,0 -5,1 -7,4 -2,1 -3,4 -3,8l0 3c0,4 1,6 3,8 2,2 4,3 7,3 2,0 4,0 5,-2 3,-2 4,-6 4,-11 0,-4 -1,-8 -4,-10 -1,-2 -3,-3 -5,-3zm25 -5l6 0 0 25c0,2 1,4 2,5 1,1 3,2 5,2 2,0 5,-1 7,-3 3,-3 5,-7 5,-10l0 -19 6 0 0 37 -6 0 0 -7c-4,5 -8,7 -13,7 -4,0 -7,-1 -9,-3 -2,-2 -3,-4 -3,-7l0 -27zm41 11c0,-3 1,-5 3,-7 2,-3 6,-4 11,-4 5,0 9,1 11,3 2,3 3,5 3,7l-6 0c0,-1 -1,-2 -1,-3 -2,-1 -4,-2 -8,-2 -2,0 -3,1 -5,2 -1,1 -1,2 -1,4 0,1 0,1 1,2 1,1 3,2 8,3 2,1 5,1 7,2 1,0 3,1 4,2 1,2 2,4 2,6 0,3 -1,5 -3,7 -3,3 -7,4 -12,4 -5,0 -9,-1 -12,-4 -2,-2 -3,-5 -3,-8l6 0c1,2 1,4 2,4 2,2 4,3 7,3 3,0 6,-1 7,-2 1,-1 1,-2 1,-3 0,-1 0,-2 -1,-3 -1,-1 -2,-2 -4,-2 -4,-1 -7,-2 -9,-3 -2,0 -4,-1 -5,-2 -2,-2 -3,-4 -3,-6zm39 -29l6 0 0 8 -6 0 0 -8zm0 18l6 0 0 37 -6 0 0 -37zm23 37l-7 0 0 -37 7 0 0 7c4,-5 8,-7 12,-7 4,0 8,1 10,4 2,1 3,3 3,6l0 27 -7 0 0 -25c0,-2 0,-4 -2,-5 -1,-1 -3,-2 -5,-2 -2,0 -4,1 -6,3 -4,3 -5,7 -5,10l0 19zm33 -19c0,-5 2,-10 6,-14 3,-3 7,-4 12,-4 4,0 8,1 11,5 3,3 5,7 5,13l-26 0c0,5 1,8 3,10 2,2 4,3 7,3 3,0 5,0 7,-2 1,-1 2,-3 2,-5l7 0c-1,4 -2,7 -4,9 -3,3 -7,4 -12,4 -5,0 -9,-1 -12,-5 -4,-3 -6,-8 -6,-14zm17 -13c-2,0 -5,1 -6,3 -2,1 -3,3 -3,5l18 0c0,-2 -1,-4 -2,-5 -2,-2 -4,-3 -7,-3zm26 6c0,-3 1,-5 3,-7 2,-3 6,-4 10,-4 6,0 9,1 12,3 2,3 3,5 3,7l-7 0c0,-1 0,-2 -1,-3 -1,-1 -3,-2 -7,-2 -2,0 -4,1 -5,2 -1,1 -2,2 -2,4 0,1 1,1 1,2 1,1 4,2 8,3 3,1 6,1 7,2 2,0 3,1 4,2 2,2 3,4 3,6 0,3 -1,5 -3,7 -3,3 -7,4 -12,4 -6,0 -10,-1 -12,-4 -2,-2 -3,-5 -3,-8l6 0c0,2 1,4 2,4 1,2 3,3 6,3 4,0 7,-1 8,-2 1,-1 1,-2 1,-3 0,-1 0,-2 -1,-3 -1,-1 -3,-2 -5,-2 -4,-1 -6,-2 -8,-3 -3,0 -4,-1 -5,-2 -2,-2 -3,-4 -3,-6zm38 0c0,-3 1,-5 2,-7 3,-3 7,-4 11,-4 6,0 9,1 12,3 2,3 3,5 3,7l-7 0c0,-1 0,-2 -1,-3 -1,-1 -3,-2 -7,-2 -2,0 -4,1 -5,2 -1,1 -2,2 -2,4 0,1 1,1 1,2 1,1 4,2 8,3 3,1 5,1 7,2 2,0 3,1 4,2 2,2 3,4 3,6 0,3 -1,5 -3,7 -3,3 -7,4 -12,4 -6,0 -10,-1 -12,-4 -2,-2 -3,-5 -3,-8l6 0c0,2 1,4 2,4 1,2 3,3 6,3 4,0 7,-1 8,-2 1,-1 1,-2 1,-3 0,-1 0,-2 -2,-3 0,-1 -2,-2 -4,-2 -4,-1 -6,-2 -8,-3 -3,0 -4,-1 -6,-2 -1,-2 -2,-4 -2,-6z"></path> <path class="fil5" d="M234 150c0,-2 1,-3 1,-4l0 0c1,-2 1,-3 2,-4 2,-1 3,-2 5,-3 2,0 4,-1 7,-1 2,0 5,1 7,1 1,1 3,2 4,3 1,1 2,2 3,4 0,1 1,2 1,3l0 1 -1 0 -6 0 -1 0 0 0c0,-1 0,-2 0,-2l0 0c0,-1 -1,-1 -1,-1 0,-1 -1,-1 -2,-2 -2,0 -3,0 -5,0 -1,0 -2,0 -2,0 -1,1 -2,1 -2,2l0 0c-1,0 -1,1 -2,1 0,1 0,1 0,2 0,0 0,0 0,1l0 0c0,0 1,0 1,1 0,0 1,0 2,1 2,0 4,1 6,1l0 0c1,1 2,1 4,1 1,1 2,1 3,1l0 0c1,1 2,1 2,1 1,1 1,1 2,2l0 0c1,1 1,2 2,3 0,1 1,2 1,3 0,3 -1,5 -4,8l0 0c-1,1 -3,2 -5,3 -2,0 -4,1 -7,1 -5,0 -10,-2 -12,-4l0 0c-1,-1 -2,-3 -3,-4 0,-2 -1,-3 -1,-5l0 0 1 0 6 0 1 0 0 0c0,1 0,2 0,3 1,0 1,1 1,1 1,1 2,1 3,2l0 0c1,0 2,0 4,0 1,0 3,0 4,0 1,-1 2,-1 3,-2l0 0c0,0 0,0 1,-1 0,0 0,-1 0,-1 0,-1 -1,-2 -2,-3 0,-1 -2,-1 -4,-2l0 0c-1,0 -3,-1 -5,-1 -1,0 -2,-1 -3,-1 -1,0 -2,-1 -3,-1 -1,-1 -2,-1 -3,-2 -2,-2 -3,-4 -3,-6zm2 -4l0 0c0,1 -1,2 -1,4 0,2 1,4 3,6 1,0 1,0 2,1 1,0 2,1 3,1l0 0c1,0 2,1 4,1 1,0 3,1 5,1 2,1 3,1 4,2 1,1 2,3 2,4 0,0 0,1 0,1 -1,1 -1,2 -2,2l0 0c0,1 -1,1 -3,2 -1,0 -2,0 -4,0 -2,0 -3,0 -4,0l0 0c-2,-1 -3,-1 -3,-2 -1,-1 -1,-1 -2,-2 0,-1 0,-1 0,-2l-6 0c0,1 1,2 1,3 1,2 1,3 2,4l0 0c3,2 7,4 12,4 3,0 5,-1 7,-1 2,-1 3,-2 5,-3l0 0c2,-2 3,-4 3,-7 0,-1 -1,-2 -1,-3l0 0c0,-1 -1,-2 -2,-3l0 0c0,0 -1,0 -1,-1 -1,0 -2,0 -2,-1 -1,0 -2,0 -4,-1 -1,0 -2,0 -3,-1l0 0c-3,0 -5,-1 -6,-1 -1,-1 -2,-1 -3,-2l0 0c0,0 0,0 -1,-1l0 0c0,0 0,-1 0,-1 0,-1 0,-2 1,-2 0,-1 0,-2 1,-2l0 0c1,-1 1,-1 2,-2 1,0 2,0 3,0 2,0 4,0 5,0 1,1 2,1 3,2l0 0c0,0 0,1 1,1l0 0c0,1 0,1 0,2l6 0c0,-1 -1,-2 -1,-3 -1,-1 -1,-2 -2,-3 -2,-1 -3,-2 -5,-3 -2,0 -4,-1 -6,-1 -3,0 -5,1 -6,1 -2,1 -4,2 -5,3 -1,1 -1,2 -2,3zm43 30l-6 0 -1 0 0 0 0 -37 0 0 1 0 6 0 1 0 0 0 0 4c1,-1 2,-2 3,-3 2,-1 4,-2 6,-2 4,0 7,1 10,4 0,0 1,1 1,1 0,1 1,1 1,2 1,-2 3,-4 5,-5 2,-1 4,-2 6,-2 2,0 4,1 5,1 2,1 3,1 4,2l0 0c1,1 2,3 2,4 1,1 1,2 1,4l0 27 0 0 0 0 -7 0 0 0 0 0 0 -26c0,0 0,-1 -1,-1 0,-1 0,-1 0,-2l0 0c-1,0 -2,-1 -2,-1 -1,0 -2,-1 -3,-1 -1,0 -2,1 -4,1 -1,1 -2,1 -3,2 0,1 -1,2 -1,3 -1,0 -1,1 -1,2l0 23 0 0 -1 0 -6 0 0 0 0 0 0 -26c0,-1 -1,-2 -2,-3 -1,-1 -3,-2 -5,-2 -1,0 -2,1 -3,1 -1,0 -2,1 -3,2 0,1 -1,2 -2,3l0 0c0,0 0,1 0,2l0 23 0 0 -1 0zm-6 -1l6 0 0 -22c0,-1 0,-2 1,-3l0 0c0,-1 1,-2 2,-3 1,-1 2,-1 3,-2 1,0 2,-1 3,-1 3,0 4,1 5,2 2,2 3,3 3,4l0 25 5 0 0 -22c0,-1 0,-2 1,-3 0,-1 1,-2 2,-3 1,-1 2,-1 3,-2 1,0 3,-1 4,-1 1,0 2,1 3,1 1,0 2,1 2,2l0 0c1,0 1,1 1,1 1,1 1,1 1,2l0 25 5 0 0 -26c0,-1 0,-3 -1,-4 0,-1 -1,-2 -2,-3l0 0c-1,-1 -2,-2 -3,-2 -1,0 -3,-1 -5,-1 -2,0 -4,1 -6,2 -2,1 -3,3 -5,5l0 1 -1 -1c0,-1 0,-1 -1,-2 0,-1 -1,-1 -1,-2 -2,-2 -5,-3 -9,-3 -2,0 -3,1 -5,2 -2,1 -3,2 -4,4l-1 0 0 -5 -6 0 0 35zm59 -25c1,-2 1,-3 2,-4 1,-2 2,-3 3,-4 1,-1 3,-2 4,-3 2,0 4,-1 6,-1 3,0 6,1 7,1 3,1 4,2 5,3 1,1 2,2 3,4l0 0c0,1 1,2 1,4l0 20c0,1 0,2 0,3l0 0c1,1 1,2 2,2l0 1 -8 0 0 0 0 0c-1,-1 -1,-1 -1,-2 -1,0 -1,-1 -1,-2 -1,2 -3,3 -4,3 -3,1 -5,2 -7,2 -3,0 -4,-1 -6,-1l0 0c-2,-1 -3,-2 -4,-3l0 0c-1,-1 -2,-2 -2,-3 -1,-1 -1,-2 -1,-4 0,-1 0,-3 1,-4 0,-1 1,-3 2,-4 1,-1 2,-2 4,-2l0 0c1,-1 3,-2 5,-2l0 0c1,0 3,0 4,-1 1,0 2,0 3,0l0 -1c1,0 2,0 3,0l0 0c1,-1 2,-1 2,-1 0,-1 0,-2 0,-2 0,-1 -1,-1 -1,-2 -1,-1 -2,-1 -3,-1 0,-1 -1,-1 -3,-1 -1,0 -2,0 -3,1 -1,0 -2,0 -3,1 0,0 0,1 -1,1l0 0c0,1 0,2 0,2l-1 1 0 0 -7 0 -1 0 0 -1zm3 -4c-1,1 -1,2 -1,4l6 0c0,-1 0,-2 0,-2l0 0c1,-1 1,-1 2,-2l0 0c0,-1 1,-1 2,-1 2,-1 3,-1 4,-1 2,0 3,0 4,1 1,0 2,0 2,1l0 0c1,1 1,2 2,2 0,1 0,2 0,3l0 0 0 0c-1,1 -1,1 -2,1l0 0c-1,1 -2,1 -4,1 -1,1 -2,1 -3,1 -1,1 -2,1 -4,1 -2,0 -3,1 -5,2l0 0c-1,0 -2,1 -3,2 -1,1 -2,2 -2,3 -1,1 -1,3 -1,4 0,1 0,3 1,4 0,1 1,2 2,3l0 0c1,1 2,1 3,2l0 0c2,0 4,1 6,1 2,0 4,-1 6,-2 2,0 4,-1 5,-3l1 -1 0 1c0,1 0,2 1,3 0,0 0,1 0,1l6 0c0,0 0,-1 -1,-2l0 0c0,-1 0,-2 0,-3l0 -20c0,-2 -1,-3 -1,-4l0 0c-1,-1 -1,-2 -2,-3 -1,-1 -3,-2 -5,-3 -2,0 -4,-1 -7,-1 -2,0 -4,1 -5,1 -2,1 -3,2 -4,3 -2,1 -2,2 -3,3zm20 12c0,0 -1,0 -1,0 0,0 -1,1 -2,1l0 0c-3,0 -6,1 -8,2l0 0c-1,0 -2,0 -2,0l0 0c-1,1 -1,1 -2,1 0,1 0,1 -1,2 0,0 0,1 0,2 0,0 0,1 0,1 1,1 1,2 1,2 1,0 1,0 2,1 0,0 1,0 2,0 2,0 4,0 5,-1 1,-1 3,-1 4,-3 1,0 1,-1 2,-1 0,-1 0,-1 0,-1l0 -6zm-1 -1c0,0 1,0 2,0l0 -1 0 1 0 7 0 0c0,0 0,1 -1,1 0,1 -1,1 -1,2l0 0c-2,1 -3,2 -5,3 -1,1 -3,1 -5,1 -1,0 -2,0 -3,0l0 0c0,-1 -1,-1 -1,-1 -1,-1 -1,-1 -2,-2 0,-1 0,-2 0,-2 0,-1 0,-2 0,-3 1,0 1,-1 2,-1 0,-1 1,-1 1,-2l0 0c1,0 2,0 3,0l0 0 0 0c2,-1 4,-1 8,-2l0 0c1,0 1,-1 2,-1zm19 -37l7 0 0 0 0 1 0 55 0 0 0 0 -7 0 0 0 0 0 0 -55 0 -1 0 0zm6 1l-5 0 0 54 5 0 0 -54zm12 -1l6 0 0 0 0 1 0 55 0 0 0 0 -6 0 -1 0 0 0 0 -55 0 -1 1 0zm5 1l-5 0 0 54 5 0 0 -54zm28 -1l7 0 0 0 0 1 0 21c1,-1 3,-2 4,-3l0 0c2,-1 4,-1 6,-1 2,0 4,0 6,1 2,1 4,2 5,3l0 0c2,2 3,4 4,7 1,2 1,5 1,8 0,4 0,6 -1,9 -1,2 -2,5 -4,6 -1,2 -3,3 -5,4 -2,0 -4,1 -6,1 -3,0 -5,-1 -7,-2 -1,0 -2,-1 -3,-2l0 3 0 0 0 0 -7 0 0 0 0 0 0 -55 0 -1 0 0zm6 1l-5 0 0 54 5 0 0 -4 1 0c1,1 2,3 4,3 1,1 3,2 6,2 2,0 4,-1 6,-1 1,-1 3,-2 4,-3 2,-2 3,-4 4,-6 1,-3 1,-5 1,-9 0,-3 0,-5 -1,-8 -1,-2 -2,-4 -4,-6 -1,-1 -3,-2 -4,-3 -2,-1 -4,-1 -6,-1 -2,0 -4,0 -5,1l0 0c-2,1 -4,2 -5,4l-1 0 0 -23zm11 24c-2,0 -3,0 -4,1l0 0c-1,0 -2,1 -3,2 -1,1 -2,2 -2,3 -1,1 -1,3 -1,5l0 3c0,2 0,3 1,5 0,1 1,2 2,3l0 0c1,1 2,2 3,2 1,1 2,1 4,1 1,0 2,0 2,-1 1,0 2,-1 3,-1 2,-3 3,-6 3,-11 0,-4 -1,-8 -3,-10l0 0c-1,-1 -2,-1 -2,-2 -1,0 -2,0 -3,0zm-4 0c1,-1 2,-1 4,-1 1,0 2,0 3,0 1,1 2,2 3,3l0 0c2,2 3,5 3,10 0,5 -1,9 -4,11 0,1 -1,2 -2,2 -1,1 -2,1 -3,1 -2,0 -3,0 -4,-1 -1,0 -2,-1 -3,-2l0 0c-2,-1 -2,-3 -3,-4 -1,-1 -1,-3 -1,-5l0 -3c0,-2 0,-4 1,-5 0,-2 1,-3 2,-4 1,-1 3,-2 4,-2l0 0zm29 -6l6 0 1 0 0 0 0 25c0,1 0,2 0,3l0 0c0,1 1,1 1,2l0 0c1,1 2,1 2,1 1,0 2,0 3,0 1,0 2,0 3,0 2,-1 3,-2 4,-3l0 0c1,-1 2,-3 3,-4 1,-2 1,-4 1,-5l0 -19 0 0 1 0 6 0 1 0 0 0 0 37 0 0 -1 0 -6 0 -1 0 0 0 0 -5c-1,1 -3,3 -5,4 -2,1 -4,2 -7,2 -2,0 -4,-1 -6,-1 -1,-1 -3,-1 -4,-2 -1,-1 -1,-3 -2,-4 0,-1 -1,-3 -1,-4l0 -27 0 0 1 0zm6 1l-6 0 0 26c0,1 1,3 1,4 0,1 1,2 2,3 1,1 2,1 4,2 1,0 3,1 5,1 3,0 5,-1 7,-2 2,-1 4,-3 5,-5l1 0 0 6 6 0 0 -35 -6 0 0 18c0,2 0,3 -1,5 -1,2 -2,3 -4,5l0 0c-1,1 -2,2 -3,3 -2,0 -3,1 -4,1 -1,0 -2,-1 -3,-1 -1,0 -2,-1 -2,-1 -1,-1 -1,-2 -2,-3l0 0c0,-1 0,-2 0,-3l0 -24zm34 10c0,-2 1,-3 1,-4l0 0c1,-2 1,-3 2,-4 2,-1 3,-2 5,-3 2,0 4,-1 7,-1 2,0 5,1 7,1 2,1 3,2 4,3 2,1 2,2 3,4 0,1 1,2 1,3l0 1 -1 0 -6 0 -1 0 0 0c0,-1 0,-2 0,-2l0 0c0,-1 -1,-1 -1,-1 0,-1 -1,-1 -2,-2 -1,0 -3,0 -5,0 -1,0 -1,0 -2,0 -1,1 -2,1 -2,2l0 0c-1,0 -1,1 -1,1 -1,1 -1,1 -1,2 0,0 0,0 0,1l0 0c1,0 1,0 1,1 0,0 1,0 3,1 1,0 3,1 5,1l0 0c1,1 3,1 4,1 1,1 2,1 3,1l0 0c1,1 2,1 2,1 1,1 2,1 2,2l0 0c1,1 2,2 2,3 0,1 1,2 1,3 0,3 -1,5 -4,8l0 0c-1,1 -3,2 -5,3 -2,0 -4,1 -7,1 -5,0 -9,-2 -12,-4l0 0c-1,-1 -2,-3 -3,-4 0,-2 -1,-3 -1,-5l0 0 1 0 6 0 1 0 0 0c0,1 0,2 0,3 1,0 1,1 1,1 1,1 2,1 3,2l0 0c1,0 2,0 4,0 2,0 3,0 4,0 1,-1 2,-1 3,-2l0 0c0,0 0,0 1,-1 0,0 0,-1 0,-1 0,-1 -1,-2 -2,-3 0,-1 -2,-1 -3,-2l0 0c-2,0 -4,-1 -6,-1 -1,0 -2,-1 -3,-1 -1,0 -2,-1 -3,-1 -1,-1 -2,-1 -3,-2 -2,-2 -3,-4 -3,-6zm2 -4l0 0c0,1 -1,2 -1,4 0,2 1,4 3,6 1,0 1,0 2,1 1,0 2,1 3,1l0 0c1,0 2,1 4,1 1,0 3,1 5,1 2,1 3,1 4,2 1,1 2,3 2,4 0,0 0,1 0,1 -1,1 -1,2 -1,2l0 0c-1,1 -2,1 -4,2 -1,0 -2,0 -4,0 -2,0 -3,0 -4,0l0 0c-2,-1 -3,-1 -3,-2 -1,-1 -1,-1 -1,-2 -1,-1 -1,-1 -1,-2l-6 0c1,1 1,2 1,3 1,2 2,3 3,4l0 0c2,2 6,4 11,4 3,0 5,-1 7,-1 2,-1 3,-2 5,-3l0 0c2,-2 3,-4 3,-7 0,-1 -1,-2 -1,-3l0 0c0,-1 -1,-2 -2,-3l0 0c0,0 -1,0 -1,-1 -1,0 -2,0 -2,-1 -1,0 -2,0 -4,-1 -1,0 -2,0 -3,-1l0 0c-3,0 -4,-1 -6,-1 -1,-1 -2,-1 -3,-2l0 0c0,0 0,0 -1,-1l0 0c0,0 0,-1 0,-1 0,-1 0,-2 1,-2 0,-1 0,-2 1,-2l0 0c1,-1 1,-1 2,-2 1,0 2,0 3,0 2,0 4,0 5,0 1,1 2,1 3,2l0 0c0,0 1,1 1,1l0 0c0,1 0,1 0,2l6 0c0,-1 -1,-2 -1,-3 -1,-1 -1,-2 -2,-3 -1,-1 -3,-2 -5,-3 -2,0 -4,-1 -6,-1 -3,0 -5,1 -6,1 -2,1 -4,2 -5,3 -1,1 -1,2 -2,3zm38 -26l6 0 0 0 0 1 0 8 0 1 0 0 -6 0 -1 0 0 -1 0 -8 0 -1 1 0zm5 1l-5 0 0 8 5 0 0 -8zm-5 18l6 0 0 0 0 0 0 37 0 0 0 0 -6 0 -1 0 0 0 0 -37 0 0 1 0zm5 1l-5 0 0 35 5 0 0 -35zm18 36l-7 0 0 0 0 0 0 -37 0 0 0 0 7 0 0 0 0 0 0 6c2,-2 4,-4 5,-5 3,-1 5,-2 7,-2 2,0 4,1 6,1 2,1 3,2 5,3l0 0c0,1 1,2 2,3 0,1 0,3 0,4l0 27 0 0 0 0 -7 0 0 0 0 0 0 -25c0,-1 0,-2 -1,-3 0,0 0,-1 -1,-2 -1,0 -1,-1 -2,-1 -1,0 -2,-1 -3,-1 -1,0 -2,1 -3,1 -1,1 -2,2 -3,3 -2,1 -3,3 -4,4 0,2 -1,4 -1,5l0 19 0 0 0 0zm-6 -1l5 0 0 -18c0,-1 1,-3 1,-5 1,-2 3,-4 4,-5 1,-1 2,-2 4,-3 1,0 2,-1 3,-1 1,0 2,1 3,1 1,0 2,1 3,2l0 0c0,0 1,1 1,2 1,1 1,2 1,3l0 24 5 0 0 -26c0,-1 0,-2 0,-3l0 0c-1,-1 -1,-2 -2,-3 -1,-1 -3,-2 -4,-3 -2,0 -4,-1 -6,-1 -2,0 -4,1 -6,2 -2,1 -4,3 -6,5l-1 0 0 -6 -5 0 0 35zm39 -18c0,-5 2,-10 6,-14 1,-2 3,-3 5,-4 2,0 4,-1 7,-1 4,0 8,2 11,5l0 0c2,2 3,4 4,6 1,3 1,5 1,8l0 1 0 0 -26 0c0,4 1,7 3,9 1,1 2,2 3,2 1,1 3,1 4,1 2,0 3,0 4,-1 1,0 2,0 2,-1 1,-1 1,-1 2,-2 0,-1 0,-2 0,-3l0 0 1 0 7 0 1 0 -1 0c0,2 -1,4 -1,6 -1,1 -2,2 -3,3l0 0c-1,2 -3,3 -5,4 -2,0 -4,1 -7,1 -2,0 -5,-1 -7,-2 -2,0 -4,-2 -6,-3l0 0c-2,-2 -3,-4 -4,-7 -1,-2 -1,-5 -1,-8zm6 -13c-3,3 -5,8 -5,13 0,3 0,6 1,8 1,2 2,4 4,6 2,2 3,3 5,3 2,1 5,2 7,2 3,0 5,-1 7,-1 1,-1 3,-2 4,-3 1,-1 2,-2 3,-4 0,-1 1,-3 1,-4l-6 0c0,1 0,1 0,2 -1,1 -1,2 -2,3l0 0c-1,0 -2,1 -3,1 -1,1 -2,1 -4,1 -1,0 -3,0 -4,-1 -1,0 -3,-1 -4,-2l0 0c-2,-2 -3,-6 -3,-11l0 0 1 0 25 0c0,-3 0,-5 -1,-7 -1,-3 -2,-5 -3,-6 -3,-3 -7,-5 -11,-5 -3,0 -5,1 -7,1 -2,1 -3,2 -5,4l0 0zm11 1c-1,0 -2,0 -3,0 -1,1 -2,1 -3,2 -1,1 -1,2 -2,3 0,0 0,1 0,2l17 0c0,-1 -1,-2 -1,-3 0,0 -1,-1 -2,-2 0,-1 -1,-1 -2,-2 -1,0 -2,0 -4,0zm-4 -1c2,0 3,0 4,0 2,0 3,0 4,0 1,1 2,1 3,2l0 0c1,1 2,2 2,3 0,1 1,2 1,3l0 1 -1 0 -18 0 -1 0 0 -1c1,-1 1,-2 1,-3 1,-1 2,-2 2,-2 1,-1 2,-2 3,-3zm29 6c0,-2 0,-3 1,-4l0 0c0,-2 1,-3 2,-4 1,-1 3,-2 5,-3 2,0 4,-1 6,-1 3,0 5,1 7,1 2,1 4,2 5,3 1,1 2,2 3,4 0,1 0,2 0,3l0 1 0 0 -7 0 0 0 0 0c0,-1 0,-2 0,-2l0 0c-1,-1 -1,-1 -1,-1 -1,-1 -2,-1 -3,-2 -1,0 -2,0 -4,0 -1,0 -2,0 -3,0 0,1 -1,1 -2,2l0 0c0,0 -1,1 -1,1 0,1 0,1 0,2 0,0 0,0 0,1l0 0c0,0 0,0 1,1 0,0 1,0 2,1 1,0 3,1 5,1l0 0c2,1 3,1 4,1 2,1 3,1 4,1l0 0c1,1 1,1 2,1 1,1 1,1 2,2l0 0c1,1 1,2 2,3 0,1 0,2 0,3 0,3 -1,5 -3,8l0 0c-1,1 -3,2 -5,3 -2,0 -5,1 -7,1 -6,0 -10,-2 -12,-4l0 0c-2,-1 -2,-3 -3,-4 -1,-2 -1,-3 -1,-5l0 0 1 0 6 0 1 0 0 0c0,1 0,2 0,3 0,0 1,1 1,1 1,1 2,1 3,2l0 0c1,0 2,0 3,0 2,0 4,0 5,0 1,-1 2,-1 2,-2l0 0c1,0 1,0 1,-1 1,0 1,-1 1,-1 0,-1 -1,-2 -2,-3 -1,-1 -2,-1 -4,-2l0 0c-2,0 -3,-1 -5,-1 -1,0 -3,-1 -3,-1 -2,0 -3,-1 -4,-1 -1,-1 -1,-1 -2,-2 -2,-2 -3,-4 -3,-6zm2 -4l0 0c-1,1 -1,2 -1,4 0,2 1,4 3,6 0,0 1,0 2,1 1,0 2,1 3,1l0 0c1,0 2,1 3,1 2,0 4,1 5,1 2,1 4,1 5,2 1,1 2,3 2,4 0,0 0,1 -1,1 0,1 0,2 -1,2l0 0c-1,1 -2,1 -3,2 -1,0 -3,0 -5,0 -1,0 -2,0 -4,0l0 0c-1,-1 -2,-1 -3,-2 0,-1 -1,-1 -1,-2 0,-1 0,-1 0,-2l-6 0c0,1 0,2 1,3 0,2 1,3 2,4l0 0c3,2 7,4 12,4 2,0 5,-1 7,-1 2,-1 3,-2 4,-3l0 0c2,-2 3,-4 3,-7 0,-1 0,-2 0,-3l0 0c-1,-1 -1,-2 -2,-3l0 0c0,0 -1,0 -2,-1 0,0 -1,0 -2,-1 -1,0 -2,0 -3,-1 -1,0 -2,0 -4,-1l0 0c-2,0 -4,-1 -5,-1 -2,-1 -3,-1 -3,-2l0 0c0,0 -1,0 -1,-1l0 0c0,0 0,-1 0,-1 0,-1 0,-2 0,-2 1,-1 1,-2 2,-2l0 0c0,-1 1,-1 2,-2 1,0 2,0 3,0 2,0 3,0 5,0 1,1 2,1 3,2l0 0c0,0 0,1 0,1l0 0c1,1 1,1 1,2l5 0c0,-1 0,-2 0,-3 -1,-1 -2,-2 -3,-3 -1,-1 -2,-2 -4,-3 -2,0 -4,-1 -7,-1 -2,0 -4,1 -6,1 -1,1 -3,2 -4,3 -1,1 -2,2 -2,3zm36 4c0,-2 0,-3 1,-4l0 0c0,-2 1,-3 2,-4 1,-1 3,-2 5,-3 2,0 4,-1 6,-1 3,0 5,1 7,1 2,1 4,2 5,3 1,1 2,2 3,4 0,1 0,2 0,3l0 1 0 0 -7 0 0 0 0 0c0,-1 0,-2 -1,-2l0 0c0,-1 0,-1 0,-1 -1,-1 -2,-1 -3,-2 -1,0 -2,0 -4,0 -1,0 -2,0 -3,0 0,1 -1,1 -2,2l0 0c0,0 -1,1 -1,1 0,1 0,1 0,2 0,0 0,0 0,1l0 0c0,0 0,0 1,1 0,0 1,0 2,1 1,0 3,1 5,1l0 0c2,1 3,1 4,1 1,1 3,1 4,1l0 0c0,1 1,1 2,1 1,1 1,1 2,2l0 0c1,1 1,2 2,3 0,1 0,2 0,3 0,3 -1,5 -3,8l0 0c-1,1 -3,2 -5,3 -2,0 -5,1 -7,1 -6,0 -10,-2 -13,-4l0 0c-1,-1 -2,-3 -2,-4 -1,-2 -1,-3 -1,-5l0 0 1 0 6 0 0 0 1 0c0,1 0,2 0,3 0,0 1,1 1,1 1,1 2,1 3,2l0 0c1,0 2,0 3,0 2,0 4,0 5,0 1,-1 2,-1 2,-2l0 0c1,0 1,0 1,-1 0,0 1,-1 1,-1 0,-1 -1,-2 -2,-3 -1,-1 -2,-1 -4,-2l0 0c-2,0 -3,-1 -5,-1 -1,0 -3,-1 -4,-1 -1,0 -2,-1 -3,-1 -1,-1 -1,-1 -2,-2 -2,-2 -3,-4 -3,-6zm2 -4l0 0c-1,1 -1,2 -1,4 0,2 1,4 3,6 0,0 1,0 2,1 1,0 2,1 3,1l0 0c1,0 2,1 3,1 2,0 3,1 5,1 2,1 4,1 5,2 1,1 2,3 2,4 0,0 -1,1 -1,1 0,1 0,2 -1,2l0 0c-1,1 -2,1 -3,2 -1,0 -3,0 -5,0 -1,0 -3,0 -4,0l0 0c-1,-1 -2,-1 -3,-2 0,-1 -1,-1 -1,-2 0,-1 0,-1 0,-2l-6 0c0,1 0,2 1,3 0,2 1,3 2,4l0 0c3,2 6,4 12,4 2,0 5,-1 7,-1 1,-1 3,-2 4,-3l0 0c2,-2 3,-4 3,-7 0,-1 0,-2 0,-3l0 0c-1,-1 -1,-2 -2,-3l0 0c0,0 -1,0 -2,-1 0,0 -1,0 -2,-1 -1,0 -2,0 -3,-1 -1,0 -2,0 -4,-1l0 0c-2,0 -4,-1 -5,-1 -2,-1 -3,-1 -3,-2l0 0c0,0 -1,0 -1,-1l0 0c0,0 0,-1 0,-1 0,-1 0,-2 0,-2 1,-1 1,-2 2,-2l0 0c0,-1 1,-1 2,-2 1,0 2,0 3,0 2,0 3,0 5,0 1,1 2,1 3,2l0 0c0,0 0,1 0,1l0 0c1,1 1,1 1,2l5 0c0,-1 0,-2 0,-3 -1,-1 -2,-2 -3,-3 -1,-1 -2,-2 -4,-3 -2,0 -4,-1 -7,-1 -2,0 -4,1 -6,1 -1,1 -3,2 -4,3 -1,1 -2,2 -2,3z"></path> <path class="fil5" d="M234 189l7 0 0 23c2,-3 6,-5 10,-5 4,0 8,1 11,4 3,4 5,9 5,15 0,6 -2,11 -5,14 -3,3 -7,5 -11,5 -5,0 -8,-2 -10,-5l0 4 -7 0 0 -55zm17 24c-3,0 -5,1 -7,3 -2,2 -3,5 -3,8l0 4c0,3 1,6 3,8 2,2 4,3 7,3 2,0 4,-1 5,-2 2,-3 4,-6 4,-11 0,-5 -1,-8 -4,-11 -1,-1 -3,-2 -5,-2zm25 -24l7 0 0 55 -7 0 0 -55zm16 37c0,-6 2,-10 5,-14 3,-3 7,-5 12,-5 5,0 9,2 12,5 4,4 6,8 6,14 0,6 -2,10 -6,14 -3,3 -7,5 -12,5 -5,0 -9,-2 -12,-5 -3,-4 -5,-8 -5,-14zm17 -13c-2,0 -5,1 -6,3 -3,2 -4,6 -4,10 0,4 1,8 3,10 2,2 5,3 7,3 3,0 5,-1 7,-3 2,-2 3,-6 3,-10 0,-4 -1,-8 -3,-10 -2,-2 -4,-3 -7,-3zm27 7c0,-4 1,-7 3,-9 2,-2 5,-4 9,-4 4,0 7,1 9,4 2,-3 5,-4 8,-4l3 0 0 6c-3,-1 -6,-1 -9,0 2,2 2,4 2,7 0,4 -1,7 -3,9 -2,2 -6,3 -10,3 -2,0 -4,0 -6,-1 -1,1 -2,2 -2,2 0,1 0,2 1,2 1,1 3,2 7,2 4,0 7,0 11,1 2,0 4,1 5,2 2,2 2,4 2,6 0,3 0,5 -2,6 -3,3 -8,4 -16,4 -6,0 -11,-1 -13,-4 -2,-1 -2,-3 -2,-5 0,-2 0,-3 1,-4 1,-1 2,-2 4,-3 -1,0 -1,-1 -2,-1 -1,-2 -2,-3 -2,-5 0,-2 2,-4 5,-6 -2,-2 -3,-5 -3,-8zm12 -7c-1,0 -3,0 -4,1 -1,2 -2,4 -2,6 0,2 1,4 2,5 1,1 3,2 4,2 2,0 4,-1 5,-2 1,-1 2,-3 2,-5 0,-2 -1,-4 -2,-6 -1,-1 -3,-1 -5,-1zm7 30c-5,0 -9,0 -12,-1 -2,1 -3,1 -3,2 -1,1 -2,2 -2,3 0,1 1,2 2,2 1,2 4,2 8,2 6,0 10,0 11,-2 1,-1 1,-2 1,-2 0,-1 0,-2 -1,-3 -1,-1 -2,-1 -4,-1z"></path> <path class="fil5" d="M234 189l7 0 0 0 0 0 0 22c1,-1 3,-2 4,-3l0 0c2,-1 4,-1 6,-1 2,0 4,0 6,1 2,0 3,1 5,3l0 0c2,2 3,4 4,6 1,3 1,6 1,9 0,3 0,6 -1,8 -1,3 -2,5 -4,7 -2,1 -3,2 -5,3 -2,1 -4,1 -6,1 -3,0 -5,0 -7,-1 -1,-1 -2,-2 -3,-3l0 3 0 1 0 0 -7 0 0 0 0 -1 0 -55 0 0 0 0zm6 1l-5 0 0 54 5 0 0 -4 1 -1c1,2 2,3 4,4 1,1 3,1 6,1 2,0 4,0 6,-1 1,-1 3,-2 4,-3 2,-2 3,-4 4,-6 1,-2 1,-5 1,-8 0,-3 0,-6 -1,-8 -1,-3 -2,-5 -4,-6 -1,-2 -3,-3 -4,-3 -2,-1 -4,-1 -6,-1 -2,0 -4,0 -5,1l0 0c-2,1 -4,2 -5,3l-1 0 0 -22zm11 23c-2,0 -3,1 -4,1l0 0c-1,1 -2,1 -3,2 -1,1 -2,2 -2,4 -1,1 -1,2 -1,4l0 4c0,1 0,3 1,4 0,1 1,3 2,4l0 0c1,1 2,1 3,2 1,0 2,0 4,0 1,0 2,0 2,0 1,-1 2,-1 3,-2 2,-2 3,-5 3,-10 0,-5 -1,-8 -3,-10l0 0c-1,-1 -2,-2 -3,-2 0,0 -1,-1 -2,-1zm-4 0c1,0 2,-1 4,-1 1,0 2,1 3,1 1,0 2,1 3,2l0 0c2,2 3,6 3,11 0,5 -1,9 -4,11 0,1 -1,1 -2,2 -1,0 -2,0 -3,0 -2,0 -3,0 -4,0 -1,-1 -2,-2 -3,-3l0 0c-2,-1 -2,-2 -3,-3 -1,-2 -1,-3 -1,-5l0 -4c0,-2 0,-3 1,-5 0,-1 1,-2 2,-3 1,-1 2,-2 4,-3l0 0zm29 -24l7 0 0 0 0 0 0 55 0 1 0 0 -7 0 0 0 0 -1 0 -55 0 0 0 0zm6 1l-5 0 0 54 5 0 0 -54zm9 36c0,-3 1,-5 2,-8l0 0c1,-2 2,-4 4,-6l0 0c2,-2 3,-3 5,-4 3,-1 5,-1 7,-1 5,0 9,2 12,5l0 0c2,2 4,4 5,6l0 0c1,3 1,5 1,8 0,3 0,5 -1,8l0 0c-1,2 -3,4 -5,6l0 0c-1,2 -3,3 -5,4 -2,1 -4,1 -7,1 -2,0 -4,0 -7,-1 -2,-1 -3,-2 -5,-4l0 0c-2,-2 -3,-4 -4,-6l0 0c-1,-3 -2,-5 -2,-8zm3 -7c-1,2 -2,4 -2,7 0,3 1,5 2,7l0 0c1,3 2,5 4,6 1,2 3,3 5,4 2,1 4,1 6,1 2,0 5,0 6,-1 2,-1 4,-2 6,-4 1,-1 3,-3 4,-6l0 0c1,-2 1,-4 1,-7 0,-3 0,-5 -1,-7l0 0c-1,-3 -3,-5 -4,-6 -3,-4 -7,-5 -12,-5 -2,0 -4,0 -6,1 -2,1 -4,2 -5,4 -2,1 -3,3 -4,6l0 0zm15 -5c-1,0 -2,0 -3,0 -1,1 -2,1 -3,2l0 0c-2,3 -4,6 -4,10 0,2 1,4 1,6 1,1 2,2 3,4l0 0c1,1 2,1 3,2 1,0 2,0 3,0 1,0 3,0 4,0 1,-1 2,-1 3,-2 1,-1 2,-3 2,-4 1,-2 1,-4 1,-6 0,-2 0,-4 -1,-6 -1,-1 -2,-3 -3,-4 -1,-2 -3,-2 -6,-2zm-4 -1c2,0 3,0 4,0 3,0 5,1 7,2 1,2 2,3 3,5 1,2 1,4 1,6 0,2 0,4 -1,6 -1,2 -1,3 -3,4l0 0c-1,1 -2,2 -3,3l0 0c-1,0 -2,0 -4,0 -1,0 -2,0 -4,0 -1,-1 -2,-2 -3,-3l0 0c-1,-1 -2,-2 -3,-4 0,-2 -1,-4 -1,-6 0,-4 2,-8 4,-11 1,-1 2,-1 3,-2zm30 7c0,-2 0,-4 1,-5 1,-2 1,-3 3,-4 1,-2 2,-3 4,-3 1,-1 3,-1 5,-1 3,0 6,1 9,3 1,-1 2,-2 3,-2 2,-1 3,-1 5,-1l3 0 0 0 0 0 0 6 0 1 0 0c-2,-1 -3,-1 -4,-1 -2,0 -3,0 -4,0 0,1 1,2 1,3 1,1 1,3 1,4 0,2 -1,4 -1,5 -1,2 -2,3 -3,5l0 0c-1,1 -2,2 -4,2 -2,1 -3,1 -6,1 -2,0 -4,-1 -6,-2 -1,1 -1,1 -1,1l0 0c0,1 0,1 0,1 0,1 0,1 0,1 0,0 0,0 0,1 1,1 3,1 7,1l0 0c3,1 7,1 11,1l0 0 0 0c1,0 2,1 3,1l0 0c1,0 2,1 2,1 1,1 2,2 2,3 1,2 1,3 1,4 0,1 0,3 -1,4 0,1 -1,2 -2,3l0 0c-1,1 -3,2 -6,3 -2,0 -6,0 -10,0 -3,0 -6,0 -8,0 -2,-1 -4,-2 -5,-3l0 0c-1,-1 -2,-2 -2,-3 -1,-1 -1,-2 -1,-3 0,-2 1,-3 2,-4l0 0c0,-1 1,-1 2,-2 0,0 1,0 1,-1l0 0 0 0c-1,0 -1,-1 -1,-1l0 0c-1,-1 -2,-1 -2,-2 0,-1 0,-2 0,-3 0,-2 1,-4 4,-6 -1,-1 -2,-2 -2,-3 -1,-2 -1,-3 -1,-5zm2 -5c-1,2 -1,3 -1,5 0,1 0,3 1,4 0,2 1,3 2,4l1 0 -1 1c-3,2 -4,3 -4,5 0,1 0,2 0,3 0,0 1,1 1,1l0 0c1,1 1,1 1,1l0 0c1,1 1,1 1,1l1 1 -1 0c0,0 -1,1 -2,1 0,1 -1,1 -1,1l0 0c-1,1 -2,3 -2,4 0,1 0,2 1,3 0,1 1,1 1,2l0 0c1,1 3,2 5,3 2,0 5,0 8,0 4,0 8,0 10,0 3,-1 4,-2 5,-3 1,-1 2,-2 2,-3 1,-1 1,-2 1,-3 0,-1 0,-2 -1,-3l0 0c0,-1 -1,-2 -2,-3 0,0 -1,-1 -1,-1l0 0c-1,0 -2,-1 -3,-1l0 0c-4,0 -8,0 -11,-1 -4,0 -6,0 -8,-2 0,0 0,0 0,-1l0 0c0,0 0,0 0,-1 0,0 0,-1 0,-1l0 0c0,-1 1,-1 1,-2l1 0 0 0c2,1 4,2 6,2 2,0 4,0 6,-1 1,0 2,-1 3,-2 2,-1 2,-3 3,-4 0,-2 1,-3 1,-5 0,-1 0,-2 -1,-4 0,-1 -1,-2 -1,-3l-1 0 1 0c2,-1 3,-1 5,-1 1,0 2,0 3,1l0 -5 -2 0c-2,0 -3,0 -4,1 -1,0 -3,1 -4,2l0 0 0 0c-3,-2 -6,-3 -9,-3 -2,0 -3,0 -5,1 -1,0 -2,1 -4,2l0 0c-1,1 -2,3 -2,4zm11 -2c-1,0 -1,0 -2,1 0,0 -1,0 -1,1l0 0c-1,0 -2,1 -2,2 0,1 -1,2 -1,3 0,1 1,2 1,3 0,0 1,1 1,2 1,0 2,1 2,1 1,0 2,0 2,0 2,0 4,0 5,-1l0 0c0,-1 1,-1 1,-2 0,-1 0,-2 0,-3 0,-1 0,-2 0,-3 -1,-1 -1,-2 -2,-2l0 0c0,-1 -1,-1 -2,-1l0 0c0,-1 -1,-1 -2,-1zm-2 0c1,-1 1,-1 2,-1 1,0 2,0 3,1 1,0 1,0 2,1l0 0c1,1 1,2 2,3 0,1 0,2 0,3 0,1 0,2 0,3 -1,1 -1,2 -2,3 -1,1 -3,1 -5,1 -1,0 -1,0 -2,0 -1,0 -2,-1 -2,-2 -1,0 -2,-1 -2,-2 0,-1 -1,-2 -1,-3 0,-1 1,-2 1,-3 0,-1 1,-2 2,-3l0 0c0,-1 1,-1 2,-1zm9 31c-3,-1 -5,-1 -7,-1 -2,0 -4,0 -5,0 -1,0 -1,0 -2,0 0,1 -1,1 -1,1 0,0 -1,1 -1,1l0 0c0,1 0,1 0,2 0,0 0,0 0,1l0 0c0,0 1,1 1,1 1,1 2,1 3,1 1,1 3,1 5,1 3,0 5,0 7,-1 2,0 3,-1 4,-1 0,-1 0,-1 1,-1 0,-1 0,-1 0,-1 0,-1 0,-1 0,-1 -1,-1 -1,-1 -1,-1l0 0c0,-1 -1,-1 -2,-1 0,0 -1,0 -2,0l0 0zm-7 -2c2,0 4,0 7,1 1,0 2,0 3,0 1,0 1,0 2,1l0 0c0,0 0,1 1,1 0,1 0,1 0,2 0,0 0,1 -1,1 0,1 0,1 -1,2l0 0c0,0 -2,1 -4,1 -2,1 -4,1 -7,1 -2,0 -4,0 -5,-1 -2,0 -3,0 -4,-1 0,-1 0,-1 -1,-2l0 0c0,0 0,-1 0,-1 0,-1 0,-2 0,-2 1,-1 1,-1 1,-2l0 0c1,0 1,0 2,-1 0,0 1,0 2,0l0 0c1,0 3,0 5,0z"></path> </g> </g> </g> </svg>