<?xml version="1.0" encoding="UTF-8"?> <svg xmlns="http://www.w3.org/2000/svg" xmlns:xlink="http://www.w3.org/1999/xlink" xml:space="preserve" width="1.37248in" height="0.429846in" version="1.1" style="shape-rendering:geometricPrecision; text-rendering:geometricPrecision; image-rendering:optimizeQuality; fill-rule:evenodd; clip-rule:evenodd" viewBox="0 0 574 180"> <defs> <style type="text/css"> .fil3 {fill:#E6E7E8} .fil4 {fill:#A7C4D2} .fil0 {fill:#B19AB3} .fil2 {fill:#FEFEFE;fill-rule:nonzero} .fil5 {fill:#9084BD;fill-rule:nonzero} .fil1 {fill:url(#id0)} </style> <linearGradient id="id0" gradientUnits="userSpaceOnUse" x1="186.358" y1="182.347" x2="79.5718" y2="-2.61415"> <stop offset="0" style="stop-opacity:1; stop-color:#AC00C7"></stop> <stop offset="1" style="stop-opacity:1; stop-color:#FF00BF"></stop> </linearGradient> </defs> <g id="Layer_x0020_1"> <metadata id="CorelCorpID_0Corel-Layer"></metadata> <g id="_2534256359696"> <path class="fil0" d="M12 19l38 114 74 -79 -106 -41c-4,-2 -9,-2 -6,6z"></path> <path class="fil1" d="M262 86l-67 -83c-3,-5 -10,-3 -14,1l-131 137 -43 -112c-2,-4 -9,-1 -6,7l42 112 0 0 138 30c6,2 11,3 15,-1l68 -76c4,-4 2,-10 -2,-15z"></path> <path class="fil2" d="M205 165c-1,-1 -3,-3 -5,-4 -2,-2 -5,-5 -7,-7 0,0 -1,0 -1,-1 -1,2 -1,3 -2,5 -1,1 -1,2 -2,3 0,1 -1,1 -2,1 -1,0 -1,0 -2,-1 -1,-3 -2,-5 -3,-8 -1,-2 -2,-4 -3,-7 -1,-2 -2,-4 -3,-7 -1,-1 -2,-3 -3,-5 0,-2 -1,-4 -2,-6 -1,-1 -1,-2 -1,-3 1,-1 2,-1 2,-1 3,1 5,2 8,3 2,0 4,1 6,2 2,0 4,1 6,2 2,1 4,1 6,2 2,1 4,2 6,2 1,1 2,1 4,2 1,0 1,0 1,1 1,1 0,2 -1,2 -2,2 -4,3 -6,5 -1,0 -1,0 0,1 3,3 7,7 11,10 0,0 0,0 1,1 0,0 0,1 0,1 0,1 -1,1 -1,1l-4 5 -1 1c-1,0 -1,0 -2,0z"></path> <path class="fil2" d="M174 110c1,1 1,3 1,4 0,1 0,2 0,4 0,1 0,1 -1,2 -1,0 -1,0 -2,-1 0,0 -1,-1 -1,-1 0,-2 0,-4 0,-6 0,-1 1,-1 1,-2 1,0 1,0 2,0z"></path> <path class="fil2" d="M155 129c0,-1 1,-1 1,-1 0,0 1,-1 1,-1 2,0 4,0 6,0 1,0 1,0 2,1 0,1 0,2 -1,2 -1,1 -1,1 -2,1 -1,0 -2,0 -4,0 -1,0 -2,0 -3,-1 0,-1 0,-1 0,-1z"></path> <path class="fil2" d="M160 117c0,0 0,-1 1,-1 0,0 1,0 2,0 1,1 3,3 4,4 1,1 1,2 0,3 0,0 -1,0 -2,0 -2,-2 -3,-3 -5,-5 0,0 0,0 0,-1z"></path> <path class="fil2" d="M184 114c1,0 2,0 2,1 0,0 0,1 0,2 -2,1 -3,3 -4,4 -1,1 -2,1 -3,0 0,0 -1,-1 0,-2 1,-2 3,-3 4,-5 0,0 1,0 1,0z"></path> <path class="fil2" d="M162 142c-1,0 -2,0 -2,-1 0,-1 0,-2 0,-2 2,-2 3,-3 4,-4 1,-1 2,-1 3,0 1,0 1,1 0,2 -1,2 -3,3 -4,4 0,1 -1,1 -1,1z"></path> <path class="fil3" d="M26 19l24 114 78 -81 -96 -39c-4,-2 -8,-2 -6,6z"></path> <path class="fil4" d="M38 19l12 114 78 -81 -83 -39c-3,-2 -8,-2 -7,6z"></path> <g> <path class="fil5" d="M299 99c-1,0 -1,0 -2,0l0 0c0,0 -1,-1 -1,-1 0,0 -1,-1 -1,-1l0 0c0,-1 0,-1 0,-2 0,0 0,-1 0,-2 0,-1 0,-2 0,-3 0,-3 0,-6 0,-10 1,-4 1,-9 1,-14 1,-5 1,-10 2,-14 0,-4 0,-7 0,-10 0,0 0,0 0,0 0,0 -2,0 -4,1l0 0c-1,0 -1,0 -2,1 0,0 -1,0 -2,1 -1,0 -2,1 -3,1 0,0 -1,0 -2,0 -1,0 -2,0 -3,-1 0,-1 -1,-1 -1,-2l0 0c0,0 0,-1 0,-2 0,-1 0,-2 1,-3 0,-1 1,-1 2,-2l0 0c4,-2 8,-3 12,-4 4,-1 8,-2 13,-2l0 0 9 0 7 0c0,0 1,0 1,1 0,0 0,0 1,1l0 0 0 0 0 1c0,0 0,0 1,0l0 0c0,1 0,1 0,1 0,3 -2,5 -6,6l0 0c0,0 -4,1 -11,1 -1,6 -2,13 -3,22 0,9 -1,19 -1,30l0 0c0,1 -1,2 -1,2 -1,1 -1,2 -2,2l0 0c-1,1 -2,1 -3,2 -1,0 -2,0 -2,0zm31 -34c0,-1 0,-3 0,-6 0,-1 0,-2 0,-3l0 0c0,-1 0,-1 0,-2 0,-3 0,-5 1,-7 1,-1 1,-2 2,-2l0 0c1,-1 2,-1 4,-1 0,0 1,0 1,0 1,0 1,0 1,0l1 0c0,1 1,1 1,2 0,1 0,2 0,3l0 0c0,4 0,7 -1,10 0,2 0,4 0,5 0,3 0,5 1,8 2,-3 4,-6 6,-7 2,-2 5,-3 7,-3 2,0 3,0 4,0l1 1 0 0c1,6 3,12 3,17 1,5 2,8 2,11 0,1 0,2 0,3 0,1 -1,2 -1,2 0,1 0,2 0,2l0 0c-1,0 -1,1 -2,1 0,0 -1,1 -1,1 -1,0 -2,0 -2,0 -2,0 -3,0 -3,-1l0 0c-1,-1 -2,-3 -3,-5 0,-2 0,-4 0,-7l0 -2 0 -2c0,-2 -1,-4 -1,-6 0,-1 0,-2 -1,-3 -2,2 -4,4 -5,7 -2,3 -4,6 -6,9l0 0c0,1 0,1 -1,2 0,0 -1,0 -2,1 0,0 -1,0 -1,0 -1,0 -2,0 -2,0l0 0c-1,0 -2,0 -2,-1l0 0c-1,0 -1,0 -2,0 0,0 0,-1 0,-1 0,-2 0,-4 0,-6 0,-2 0,-5 1,-7 0,-6 0,-10 0,-13zm35 4c0,-3 0,-5 1,-7 0,-2 1,-4 3,-6 2,-2 3,-3 5,-4 2,-1 4,-1 7,-1 2,0 5,1 7,1 2,1 4,3 6,5 2,2 3,4 4,6 1,2 2,5 2,7l0 0c-1,2 -4,5 -9,8 -3,1 -5,3 -6,4 -2,1 -3,2 -3,2l0 0c-1,0 -1,0 -2,1 0,0 0,0 0,0 0,1 0,1 1,1 0,1 0,1 1,2 1,0 2,0 2,1 1,0 1,0 2,0 2,0 5,-1 10,-4l0 0 0 1c1,0 2,1 2,2l0 0c1,0 1,1 1,2 0,2 -1,3 -2,4 0,1 -1,1 -1,2 -1,0 -2,0 -2,1 -3,0 -5,0 -6,0 -1,1 -2,1 -3,1 -3,0 -5,-1 -7,-2 -4,-2 -8,-5 -10,-10 -2,-4 -3,-10 -3,-17l0 0zm12 4c3,0 5,0 7,-1l0 0c2,-1 3,-3 4,-5l0 0c0,0 0,-1 0,-1 0,-1 0,-1 0,-2 -1,0 -1,-1 -2,-1 -1,-1 -1,-1 -2,-1 -1,-1 -2,-1 -3,-1 0,0 -1,0 -2,1 0,0 -1,0 -1,0l0 0c-1,1 -2,1 -2,2 -1,1 -1,3 -1,4 0,2 0,3 1,4 0,1 0,1 1,1zm43 6c0,-7 0,-15 1,-22 1,-7 2,-15 3,-22l0 -1c0,-1 1,-2 3,-3 0,0 1,0 2,-1 0,0 1,0 2,0 1,0 3,0 3,1 1,1 2,2 2,3 0,1 0,2 0,3 0,1 1,3 1,4 0,2 -1,4 -1,7 0,3 -1,7 -2,11 0,4 -1,7 -1,10 0,3 -1,6 -1,8 0,3 1,6 2,9 9,0 16,-1 20,-2 0,-1 1,-1 2,-2 1,0 2,0 2,0 1,0 1,0 2,0 0,0 0,0 1,0l0 0c1,2 2,3 3,4l0 0c1,1 1,2 1,3 0,0 0,0 0,0 0,1 0,1 0,1l0 0c-2,2 -5,4 -8,5l0 0c-3,1 -7,2 -12,2l0 0 -6 0 0 0c-3,0 -6,0 -8,0 -3,1 -5,1 -6,2l-1 0 0 0c-2,-1 -3,-2 -4,-4 0,-1 -1,-3 -1,-6 0,0 0,-1 0,-2 0,-1 1,-2 1,-3 0,-1 0,-2 0,-3 0,-1 0,-1 0,-2zm55 6c-3,-1 -5,-4 -7,-6 -1,-3 -2,-6 -2,-10 0,-1 0,-2 0,-3 1,-1 1,-2 1,-3 0,-1 1,-2 1,-3 1,-2 2,-3 3,-4l0 0c1,-1 1,-3 2,-3 0,-1 1,-2 1,-2l0 0c0,-1 1,-2 2,-3 1,-1 3,-1 4,-1 2,0 3,0 5,1 1,1 3,2 4,3l0 0c1,2 2,3 3,5 1,2 2,4 2,6l0 0c1,1 1,2 1,3 0,0 0,1 0,2 0,6 -3,11 -8,17 -1,1 -2,2 -3,2 -1,0 -2,0 -4,0 -1,0 -2,0 -2,0 -1,0 -2,0 -3,-1l0 0zm4 -11c0,0 1,0 1,0 0,0 0,0 1,0 2,0 4,-2 4,-5 0,-4 -1,-6 -4,-9l0 0 0 0c0,0 0,0 0,0 -1,0 -2,1 -4,3 -1,1 -1,2 -2,3 0,1 0,2 0,3 0,1 0,2 1,3 1,1 2,1 3,2l0 0zm38 -24c1,1 2,1 4,2 1,1 3,1 4,2l0 0c2,0 3,1 4,2 1,1 2,2 2,3 1,1 1,1 1,2 0,1 -1,2 -1,3 0,1 -1,1 -2,2l0 0c0,0 0,0 -1,0l0 0c0,0 -1,0 -1,0 -1,0 -2,0 -3,0 -1,-1 -3,-2 -4,-3 -2,-1 -3,-1 -5,-2 -1,0 -2,-1 -3,-1 0,0 -1,0 -2,1 0,0 -1,0 -2,0 0,1 0,1 0,1l0 0c0,0 0,0 0,1 0,0 0,0 0,1 0,0 1,1 1,2l0 0c1,0 1,1 2,1 0,0 1,1 1,1 4,1 7,3 10,4 3,2 5,3 7,5l0 0c1,1 1,2 2,3 0,1 0,2 0,3 0,1 0,2 0,4 -1,1 -1,2 -2,4l0 0c-1,1 -2,2 -3,3 -1,1 -3,2 -5,3l0 0c-2,1 -3,2 -5,2 -2,1 -4,1 -6,1 -3,0 -6,-1 -8,-2l0 0c-2,-1 -4,-4 -6,-6 0,-1 0,-1 0,-2 0,-1 0,-1 0,-2l0 0c1,-1 1,-1 2,-2 1,-1 1,-1 2,-1 0,-1 1,-1 2,-1 1,0 1,0 2,1 0,0 1,1 1,2l0 0c1,0 1,1 1,1l0 0c1,1 1,1 1,1 1,0 1,1 2,1l0 0c1,0 1,0 2,0 1,0 2,0 4,0 1,-1 1,-1 2,-2 1,0 2,-1 2,-2 1,-1 1,-2 1,-2 0,-1 0,-2 -1,-2 -1,-1 -2,-2 -4,-3l0 0 -5 -2 0 0 -5 -2 0 0c-2,-1 -4,-2 -5,-4 -2,-1 -3,-2 -4,-4l0 0c0,-1 0,-2 0,-3 0,-2 0,-4 1,-5 1,-2 3,-3 5,-5l0 0c2,-1 4,-2 6,-3 2,-1 4,-1 6,-1 1,0 2,0 3,0zm31 1l2 -11 0 0c0,-1 0,-3 2,-3 1,-1 2,-2 4,-2 1,0 2,0 3,1 1,0 2,1 3,1l0 0c1,1 1,3 1,5l0 0c-2,3 -3,6 -3,9 -1,4 -1,7 -1,11 4,0 7,0 8,-1l0 0 1 0 0 1 0 -1 0 0c4,0 6,2 6,4 0,0 0,1 0,1 0,0 0,0 0,1l0 0c-1,1 -2,2 -3,3 -1,1 -3,1 -5,1l0 0c0,0 -2,1 -3,1 -2,0 -4,0 -6,0 0,0 0,0 0,0 0,1 0,2 0,2 0,2 0,5 0,8 0,4 1,8 1,14l0 0c0,5 1,9 1,12 0,3 0,5 0,6 0,1 -1,2 -1,3 -1,1 -2,1 -3,1 -3,0 -5,-1 -6,-4l0 0c0,-1 0,-3 -1,-7 0,-3 0,-8 -1,-15l0 0c0,-6 0,-10 -1,-14 0,-3 0,-4 -1,-6 -1,1 -2,2 -4,2 -1,1 -3,1 -4,1 -1,0 -2,0 -2,0 -1,0 -1,-1 -2,-1 -1,0 -1,-1 -2,-1 0,-1 0,-2 0,-2 0,-2 1,-4 3,-5l0 0c1,0 1,-1 3,-1 1,0 2,-1 4,-1l0 0c1,0 2,-1 3,-1 1,0 2,-1 2,-1 0,-1 1,-2 1,-2l0 0c0,-1 1,-2 1,-3l0 0 0 -6 0 0zm-208 120c-3,1 -5,1 -5,0l-1 0c-1,-3 -2,-6 -3,-10 -1,-4 -2,-8 -2,-13 -1,-5 -2,-10 -2,-14 -1,-3 -2,-5 -2,-7 -1,1 -1,2 -2,3l0 0c-1,2 -1,4 -2,6 -1,3 -2,5 -3,7 0,2 -1,3 -1,4 -1,0 -1,1 0,1l0 0c0,1 0,2 0,3l0 0c-1,1 -2,3 -4,3 -1,1 -2,2 -4,2 0,0 -1,0 -1,0 0,-1 -1,-1 -1,-1 -1,0 -1,0 -2,-1 0,0 -1,0 -1,-1l0 0c-1,0 -1,-1 -1,-1l0 0c-1,-1 -1,-2 -1,-2 0,-4 -1,-7 -2,-9 0,-2 -1,-2 -2,-2l0 0 0 0c0,0 0,0 0,1 0,0 0,0 0,0l0 1 0 0 0 1 0 0c0,1 0,1 0,1 0,0 0,1 0,2 0,0 -1,1 -1,2 0,0 0,1 0,2 0,0 0,1 0,1 0,0 0,1 0,1 0,1 0,2 0,2 0,1 0,2 0,2 0,1 0,1 0,2 0,0 0,0 0,1 0,0 0,0 0,1 0,1 0,1 -1,2 0,0 -1,1 -2,1 0,1 -1,1 -2,1 -1,0 -2,0 -3,0 -1,0 -2,0 -3,0l0 0c0,0 -1,-1 -2,-1 -1,-1 -1,-2 -2,-3l0 0c0,-2 0,-3 0,-4 0,-1 0,-3 0,-4 0,-2 1,-3 1,-5 1,-3 2,-4 2,-6 0,-1 1,-2 1,-3 0,-4 0,-8 1,-13 0,-5 1,-11 2,-18l0 0c0,-2 1,-3 2,-3l0 0c1,-1 2,-1 4,-1 2,0 4,1 4,2 2,2 3,3 4,6 1,2 1,4 2,7l0 0c1,2 1,5 2,7 1,2 1,4 2,7 0,0 1,1 1,1 1,-1 1,-2 2,-4 1,-2 2,-4 3,-7 1,-2 2,-5 2,-6 1,-2 2,-4 3,-5 1,-2 2,-3 4,-4l0 0c2,-1 3,-1 5,-1 1,0 1,0 2,0 0,0 1,0 2,0l0 0 0 1c1,3 2,7 3,12 1,5 2,11 3,17 1,7 2,13 3,18 1,5 3,9 4,12l0 0c0,1 0,1 0,1 0,2 -1,3 -2,4 -1,0 -2,1 -4,1l0 0zm32 2c0,0 -1,0 -1,-1 0,0 -1,-1 -1,-1 0,-1 -1,-1 -1,-1l0 0c-4,-1 -8,-2 -11,-2l0 0c-5,-1 -8,-4 -10,-7 0,-1 -1,-1 -1,-3 0,-1 -1,-2 -1,-3 0,-2 1,-4 1,-5 1,-2 1,-3 2,-4 2,-3 5,-6 8,-7 4,-2 7,-2 11,-2 3,0 4,0 5,0 0,0 0,-1 1,-1 0,-1 0,-1 0,-2 0,-1 -1,-2 -1,-2 -1,0 -1,-1 -2,-1l0 0c0,0 -1,0 -1,0 -1,0 -2,0 -3,1 -1,0 -2,0 -3,1l0 0c-1,0 -2,0 -4,1 -1,0 -2,1 -3,1l0 0c0,0 -1,0 -1,0 -1,0 -3,-1 -3,-3 -1,0 -1,-1 -1,-2 0,0 0,-1 0,-2 0,-1 0,-2 0,-2l0 0c3,-2 5,-3 8,-4 3,-1 6,-1 9,-1 3,0 5,0 8,2 2,1 3,3 5,5l0 0c0,1 1,2 1,4 0,1 0,3 0,4 0,1 0,3 0,4 0,2 -1,4 -1,6l0 0c-1,2 -1,4 -1,6 -1,2 -1,3 -1,4l0 0c0,3 0,5 0,7 -1,2 -1,3 -1,4l0 0c0,2 -1,4 -2,5 -1,1 -2,2 -3,2 0,0 -1,0 -2,-1zm1 -35l0 -1 0 0c0,0 0,0 -1,0 1,1 1,1 1,1zm-3 22c0,-1 0,-1 0,-2 1,-1 1,-2 1,-4l0 0c1,-1 1,-3 1,-4 0,-1 0,-3 0,-4 -2,0 -4,1 -5,1 -2,0 -4,1 -6,1 -2,1 -3,2 -4,3 -1,1 -1,2 -1,4l0 0c-1,1 0,1 0,2 1,0 2,1 4,1l0 0c1,1 2,1 4,2 1,0 2,0 4,0 1,0 1,0 2,0 0,0 0,0 0,0zm17 -13c0,-1 0,-3 0,-5 -1,-2 -1,-4 -1,-5 0,-2 0,-3 0,-4 1,-1 1,-2 1,-3l0 0c1,-1 1,-2 2,-2 1,-1 2,-1 3,-1 3,0 4,1 5,3l0 0c0,1 0,1 0,1 0,0 0,1 0,1 0,0 0,1 0,1 0,1 0,2 0,2 -1,2 -1,3 -1,3l0 1c1,-2 2,-3 3,-4 1,-2 1,-2 2,-3 1,-1 2,-2 3,-3 1,0 2,-1 4,-1 0,0 1,0 1,1 1,0 1,0 2,0l0 0c3,4 4,10 5,16l0 0c0,1 0,3 1,5 0,3 0,7 0,11 1,2 1,3 0,4 0,1 -1,2 -2,3 -1,0 -2,0 -2,0 -1,0 -2,0 -2,0 -1,0 -2,0 -3,0 0,-1 -1,-1 -1,-2l0 0c0,-1 0,-3 0,-5 0,-3 -1,-5 -1,-8l0 0c0,-3 0,-5 0,-8 0,-1 -1,-2 -1,-4 0,1 -1,2 -2,3l0 0c-1,2 -1,4 -2,6l0 0c-1,3 -2,5 -3,7 -1,2 -1,3 -2,4l0 0c0,1 -1,2 -2,2 -1,1 -2,1 -3,1 -1,0 -2,0 -3,-1 0,-1 -1,-2 -1,-3l0 0c0,-1 0,-2 0,-3 -1,-1 -1,-2 -1,-3l0 0 1 -5 0 -2zm14 -15l0 0 0 0zm22 0c0,0 0,-1 0,-2 0,-1 0,-2 0,-3 1,-1 1,-2 1,-3 1,-1 1,-2 2,-2l0 0c1,0 1,-1 2,-1 1,0 1,0 2,0 2,0 3,0 4,1 2,1 2,2 2,4l0 0 0 10c0,2 0,4 0,6 0,1 0,3 0,4l2 8c0,1 1,2 1,3 1,1 1,1 1,1 1,0 1,0 1,0 0,0 0,0 0,0 3,-2 5,-5 7,-8 1,-3 2,-6 2,-10 0,-2 0,-5 -1,-7 0,-2 -1,-4 -2,-5 -2,-3 -2,-5 -2,-6 0,-2 0,-3 1,-3 1,-1 2,-1 3,-1 2,0 3,0 5,1 1,1 2,2 3,4 1,1 2,3 3,4 0,2 0,3 1,5 0,4 0,7 -1,10 0,4 -1,7 -2,10 -1,4 -3,6 -5,9 -2,2 -4,4 -7,5l0 0c-1,1 -2,1 -4,1l0 0c-1,1 -2,1 -3,1 -3,0 -5,-1 -7,-3 -2,-2 -4,-5 -6,-8l0 0c-1,-3 -2,-6 -2,-10 -1,-3 -1,-7 -1,-10 0,-1 0,-2 0,-3l0 0c0,0 0,-1 0,-2zm64 41c0,0 -1,0 -1,-1 0,0 -1,-1 -1,-1 0,-1 -1,-1 -1,-1l0 0c-4,-1 -8,-2 -11,-2l-1 0c-4,-1 -7,-4 -9,-7 0,-1 -1,-1 -1,-3 -1,-1 -1,-2 -1,-3 0,-2 1,-4 1,-5 0,-2 1,-3 2,-4 2,-3 5,-6 8,-7 3,-2 7,-2 11,-2 3,0 4,0 5,0 0,0 0,-1 0,-1 1,-1 1,-1 1,-2 0,-1 -1,-2 -1,-2 -1,0 -1,-1 -2,-1l0 0c0,0 -1,0 -1,0 -1,0 -2,0 -3,1 -1,0 -2,0 -3,1l0 0c-1,0 -3,0 -4,1 -1,0 -2,1 -3,1l0 0c0,0 -1,0 -1,0 -2,0 -3,-1 -3,-3 -1,0 -1,-1 -1,-2 0,0 0,-1 0,-2 0,-1 0,-2 0,-2l0 0c3,-2 5,-3 8,-4 3,-1 5,-1 8,-1 4,0 6,0 9,2 2,1 3,3 5,5l0 0c0,1 1,2 1,4 0,1 0,3 0,4 0,1 0,3 0,4 0,2 -1,4 -1,6l0 0c-1,2 -1,4 -1,6 -1,2 -1,3 -1,4l0 0c0,3 0,5 -1,7 0,2 0,3 0,4l0 0c-1,2 -1,4 -2,5 -1,1 -2,2 -3,2 0,0 -1,0 -2,-1zm1 -35l0 -1 0 0c0,0 0,0 -1,0 1,1 1,1 1,1zm-3 22c0,-1 0,-1 0,-2 1,-1 1,-2 1,-4l0 0c1,-1 1,-3 1,-4 0,-1 0,-3 -1,-4 -1,0 -3,1 -4,1 -2,0 -4,1 -6,1 -2,1 -3,2 -4,3 -1,1 -2,2 -2,4l0 0c0,1 1,1 1,2 1,0 2,1 4,1l0 0c1,1 2,1 4,2 1,0 2,0 4,0 0,0 1,0 1,0 1,0 1,0 1,0zm18 -29c0,-1 0,-2 0,-3l0 0c0,-2 0,-4 -1,-6 0,-2 0,-4 -1,-5 0,-2 0,-3 0,-4 0,-3 1,-5 2,-7 1,-3 3,-4 6,-4 2,0 3,0 4,1 1,1 1,2 1,4 0,0 0,1 0,1l0 0c0,0 0,1 0,1l0 0c0,1 0,1 0,2 0,0 0,0 0,0l0 23 0 0c0,1 0,3 0,4 0,2 0,4 0,6 0,2 0,4 0,6 0,2 0,3 0,4 0,2 0,5 0,8 -1,2 -1,4 -2,6 -1,1 -1,2 -2,2l0 0c-1,1 -2,1 -3,1 -1,0 -2,0 -2,0 -1,0 -2,-1 -3,-1 0,0 -1,-1 -1,-2l0 0c-1,-1 -1,-2 -1,-3 0,0 0,0 0,-1l0 0c0,0 0,0 0,-1 1,-2 2,-4 2,-7 0,-2 1,-5 1,-8l0 -9 0 -8 0 0zm11 -24l0 0 0 0z"></path> </g> </g> </g> </svg> 